<svg preserveAspectRatio="none" width="100%" height="100%" overflow="visible" style="display: block;" viewBox="0 0 25 30" fill="none" xmlns="http://www.w3.org/2000/svg">
<path id="Vector" d="M24.6351 13.3854C24.519 13.5016 24.3811 13.5938 24.2294 13.6567C24.0776 13.7196 23.915 13.752 23.7507 13.752C23.5864 13.752 23.4238 13.7196 23.272 13.6567C23.1203 13.5938 22.9824 13.5016 22.8663 13.3854L13.7507 4.26817V28.751C13.7507 29.0825 13.619 29.4004 13.3846 29.6349C13.1502 29.8693 12.8322 30.001 12.5007 30.001C12.1692 30.001 11.8512 29.8693 11.6168 29.6349C11.3824 29.4004 11.2507 29.0825 11.2507 28.751V4.26817L2.13507 13.3854C1.90052 13.6199 1.5824 13.7517 1.2507 13.7517C0.91899 13.7517 0.600871 13.6199 0.36632 13.3854C0.131769 13.1508 2.47139e-09 12.8327 0 12.501C-2.4714e-09 12.1693 0.131769 11.8512 0.36632 11.6166L11.6163 0.366608C11.7324 0.250388 11.8703 0.158189 12.022 0.0952837C12.1738 0.0323783 12.3364 0 12.5007 0C12.665 0 12.8276 0.0323783 12.9794 0.0952837C13.1311 0.158189 13.269 0.250388 13.3851 0.366608L24.6351 11.6166C24.7513 11.7327 24.8435 11.8706 24.9064 12.0223C24.9693 12.1741 25.0017 12.3367 25.0017 12.501C25.0017 12.6653 24.9693 12.8279 24.9064 12.9797C24.8435 13.1314 24.7513 13.2693 24.6351 13.3854Z" fill="var(--fill-0, white)"/>
</svg>
