<svg preserveAspectRatio="none" width="100%" height="100%" overflow="visible" style="display: block;" viewBox="0 0 61 48" fill="none" xmlns="http://www.w3.org/2000/svg">
<g id="Frame 2087327278">
<g id="Vector">
<path d="M30.6751 0.686626C30.9155 0.533646 31.4838 0.315102 31.9318 0.183976C32.5875 -0.00178545 32.9044 -0.0345669 33.571 0.0309961C34.183 0.0856319 34.5764 0.194904 35.101 0.457155C35.4944 0.653844 37.8548 1.99789 40.3464 3.42934C42.838 4.87173 45.7886 6.5873 46.9033 7.232C48.0179 7.8767 50.739 9.45021 52.9684 10.7396C55.1977 12.0181 57.0227 13.1108 57.0445 13.1545C57.0555 13.1982 57.121 13.2419 57.1757 13.2419C57.2303 13.2419 57.7439 13.5042 58.3012 13.832C58.8804 14.1707 59.5252 14.6515 59.8312 14.9794C60.1153 15.2853 60.4759 15.8207 60.6508 16.1704C60.924 16.7386 60.9458 16.9025 60.9458 18.0499C60.9458 19.2737 60.9349 19.3284 60.5634 20.0168C60.3557 20.4102 59.9514 20.9456 59.6782 21.2188C59.3941 21.4919 58.8804 21.8525 58.5307 22.0274C58.1701 22.2022 57.5472 22.388 57.121 22.4535C56.4872 22.5519 56.2249 22.53 55.5911 22.377C55.1649 22.2787 54.5857 22.0602 54.2797 21.8853C53.9847 21.7214 53.4929 21.4482 53.1869 21.2734C52.8919 21.1095 49.9631 19.4158 46.6847 17.5254L46.0848 17.1795C43.0396 15.4236 40.306 13.8474 39.8547 13.5807C39.3738 13.2966 37.068 11.9635 34.7294 10.6085C32.3908 9.26445 30.2598 7.96412 29.9975 7.72372C29.6697 7.43961 29.3637 7.00253 29.1014 6.4671C28.719 5.68034 28.708 5.60385 28.708 4.44557C28.708 3.36378 28.7408 3.18895 29.0031 2.64259C29.167 2.31477 29.5058 1.8012 29.7681 1.50616C30.0303 1.21113 30.4347 0.839606 30.6751 0.686626Z" fill="var(--fill-0, white)"/>
<path d="M17.6816 6.88233C17.9767 6.71842 18.4903 6.51081 18.8181 6.42339C19.2006 6.31412 19.6924 6.25948 20.1841 6.29226C20.6431 6.31412 21.1895 6.43431 21.572 6.59822C21.9108 6.72935 27.5169 9.92008 34.0191 13.679C41.7999 18.181 46.029 20.6833 46.4006 21.0112C46.7066 21.2843 47.0891 21.7542 47.253 22.0492C47.4169 22.3443 47.6245 22.9016 47.7338 23.2949C47.854 23.7757 47.8977 24.2237 47.854 24.6608C47.8212 25.0214 47.6792 25.6115 47.5371 25.9612C47.3732 26.3873 47.0672 26.8463 46.6301 27.3161C46.1602 27.8188 45.7668 28.1138 45.2641 28.3542C44.6958 28.6165 44.368 28.693 43.6249 28.7367C42.8708 28.7694 42.5648 28.7367 41.9856 28.54C41.5376 28.3979 36.8276 25.7317 29.3309 21.4045C22.7632 17.6019 17.1571 14.3019 16.8729 14.0505C16.5342 13.7555 16.2173 13.3294 15.955 12.7939C15.649 12.2039 15.5288 11.7886 15.4741 11.2204C15.4304 10.7287 15.4523 10.237 15.5397 9.85452C15.6162 9.5267 15.802 9.01313 15.955 8.70717C16.108 8.41213 16.4358 7.94226 16.6872 7.66909C16.9494 7.39591 17.3975 7.04624 17.6816 6.88233Z" fill="var(--fill-0, white)"/>
<path d="M19.0367 21.2953C19.3645 21.1314 19.8563 20.9565 20.1295 20.891C20.4027 20.8363 20.9382 20.8145 21.3316 20.8363C21.725 20.8582 22.2605 20.9565 22.5337 21.0549C22.8069 21.1532 28.4567 24.3658 35.101 28.1903C44.4991 33.6102 47.2858 35.2711 47.6901 35.6645C47.9851 35.9595 48.3676 36.4949 48.5425 36.8665C48.7283 37.2489 48.914 37.8499 48.9687 38.2105C49.0233 38.593 49.0233 39.1393 48.9577 39.5218C48.9031 39.8824 48.7392 40.4397 48.5862 40.7456C48.4441 41.0625 48.0616 41.5979 47.7557 41.9367C47.406 42.3082 46.9142 42.6688 46.5208 42.8655C46.1602 43.0403 45.57 43.237 45.2094 43.3026C44.6849 43.4009 44.3898 43.39 43.6795 43.2479C42.849 43.084 42.4774 42.8764 36.9041 39.6638C33.6585 37.7844 29.014 35.1072 26.5771 33.6976C24.1401 32.2989 21.4627 30.7473 20.6213 30.2665C19.7798 29.7857 18.8291 29.2065 18.5012 28.988C18.1734 28.7694 17.78 28.4198 17.616 28.2122C17.4521 28.0045 17.1899 27.5784 17.0369 27.2833C16.8839 26.9774 16.709 26.4201 16.6325 26.0267C16.5342 25.4913 16.5342 25.1416 16.6325 24.6062C16.709 24.2128 16.8948 23.6227 17.0478 23.2949C17.2117 22.9671 17.5942 22.4535 17.8892 22.1476C18.1952 21.8416 18.7089 21.4592 19.0367 21.2953Z" fill="var(--fill-0, white)"/>
<path d="M8.05399 29.3267C8.2944 29.1737 8.74245 28.9552 9.03751 28.8459C9.46371 28.693 9.81341 28.6492 10.6767 28.682C11.693 28.7148 11.8242 28.7476 12.5891 29.141C13.0372 29.3704 13.9224 29.8622 14.5562 30.2337C15.19 30.6052 18.0095 32.2334 20.8398 33.8506C25.2001 36.342 26.0744 36.8883 26.6426 37.4456C27.047 37.8499 27.4185 38.3526 27.6152 38.7569C27.8338 39.2377 27.9321 39.642 27.9759 40.2867C28.0196 41.0079 27.9868 41.3029 27.7682 41.9804C27.6043 42.5158 27.3639 42.9857 27.0688 43.3463C26.8175 43.6413 26.3913 44.0675 26.1181 44.2751C25.834 44.4827 25.375 44.745 25.0799 44.8433C24.7958 44.9416 24.2822 45.0618 23.9543 45.0946C23.6046 45.1383 23.0801 45.1165 22.6976 45.04C22.337 44.9635 21.8234 44.7887 21.5502 44.6575C21.277 44.5155 18.1734 42.7344 14.6436 40.7019C11.1138 38.6695 7.96656 36.79 7.63872 36.5168C7.31088 36.2436 6.88468 35.7738 6.70983 35.4787C6.52406 35.1728 6.29457 34.6592 6.18529 34.3314C6.04322 33.8834 6.01044 33.5009 6.05415 32.8562C6.08693 32.2006 6.18529 31.8072 6.4257 31.2718C6.61148 30.8784 6.95025 30.343 7.19067 30.0807C7.42016 29.8184 7.81357 29.4797 8.05399 29.3267Z" fill="var(--fill-0, white)"/>
<path d="M2.09819 39.6966C2.37139 39.5436 2.8413 39.3251 3.13636 39.2267C3.44234 39.1175 4.02153 39.03 4.44772 39.03C4.87392 39.03 5.46403 39.0956 5.75909 39.183C6.06508 39.2704 6.62241 39.5546 7.00489 39.8168C7.43109 40.1009 7.86821 40.5161 8.13048 40.8877C8.35997 41.2155 8.65503 41.8055 8.77524 42.1989C8.89545 42.5923 8.98287 43.1496 8.98287 43.4556C8.98287 43.7506 8.90638 44.2969 8.81895 44.6575C8.7206 45.0181 8.49111 45.5754 8.2944 45.9032C8.0977 46.231 7.70429 46.69 7.3983 46.9304C7.10324 47.1708 6.61148 47.4877 6.3055 47.6188C6.01044 47.7609 5.46403 47.9138 5.10341 47.9685C4.74278 48.0122 4.17452 48.0122 3.84668 47.9575C3.51884 47.9138 2.95058 47.739 2.58995 47.5751C2.22933 47.4003 1.69385 47.0506 1.39879 46.7883C1.11466 46.5152 0.754037 46.0999 0.6229 45.8595C0.480835 45.6191 0.28413 45.1711 0.185777 44.8761C0.0874246 44.5701 0 43.991 0 43.5648C0 43.1387 0.0546404 42.6032 0.131137 42.3628C0.207633 42.1224 0.382482 41.6963 0.524547 41.4012C0.666612 41.1171 0.972598 40.68 1.20209 40.4397C1.42065 40.1883 1.82499 39.8605 2.09819 39.6966Z" fill="var(--fill-0, white)"/>
</g>
</g>
</svg>
