<svg preserveAspectRatio="none" width="100%" height="100%" overflow="visible" style="display: block;" viewBox="0 0 17 17" fill="none" xmlns="http://www.w3.org/2000/svg">
<path id="Vector" d="M16.5 0.75V4.5C16.5 4.69891 16.421 4.88968 16.2803 5.03033C16.1397 5.17098 15.9489 5.25 15.75 5.25C15.5511 5.25 15.3603 5.17098 15.2197 5.03033C15.079 4.88968 15 4.69891 15 4.5V1.5H12C11.8011 1.5 11.6103 1.42098 11.4697 1.28033C11.329 1.13968 11.25 0.948912 11.25 0.75C11.25 0.551088 11.329 0.360322 11.4697 0.21967C11.6103 0.0790178 11.8011 0 12 0H15.75C15.9489 0 16.1397 0.0790178 16.2803 0.21967C16.421 0.360322 16.5 0.551088 16.5 0.75ZM4.5 15H1.5V12C1.5 11.8011 1.42098 11.6103 1.28033 11.4697C1.13968 11.329 0.948912 11.25 0.75 11.25C0.551088 11.25 0.360322 11.329 0.21967 11.4697C0.0790178 11.6103 0 11.8011 0 12V15.75C0 15.9489 0.0790178 16.1397 0.21967 16.2803C0.360322 16.421 0.551088 16.5 0.75 16.5H4.5C4.69891 16.5 4.88968 16.421 5.03033 16.2803C5.17098 16.1397 5.25 15.9489 5.25 15.75C5.25 15.5511 5.17098 15.3603 5.03033 15.2197C4.88968 15.079 4.69891 15 4.5 15ZM15.75 11.25C15.5511 11.25 15.3603 11.329 15.2197 11.4697C15.079 11.6103 15 11.8011 15 12V15H12C11.8011 15 11.6103 15.079 11.4697 15.2197C11.329 15.3603 11.25 15.5511 11.25 15.75C11.25 15.9489 11.329 16.1397 11.4697 16.2803C11.6103 16.421 11.8011 16.5 12 16.5H15.75C15.9489 16.5 16.1397 16.421 16.2803 16.2803C16.421 16.1397 16.5 15.9489 16.5 15.75V12C16.5 11.8011 16.421 11.6103 16.2803 11.4697C16.1397 11.329 15.9489 11.25 15.75 11.25ZM4.5 0H0.75C0.551088 0 0.360322 0.0790178 0.21967 0.21967C0.0790178 0.360322 0 0.551088 0 0.75V4.5C0 4.69891 0.0790178 4.88968 0.21967 5.03033C0.360322 5.17098 0.551088 5.25 0.75 5.25C0.948912 5.25 1.13968 5.17098 1.28033 5.03033C1.42098 4.88968 1.5 4.69891 1.5 4.5V1.5H4.5C4.69891 1.5 4.88968 1.42098 5.03033 1.28033C5.17098 1.13968 5.25 0.948912 5.25 0.75C5.25 0.551088 5.17098 0.360322 5.03033 0.21967C4.88968 0.0790178 4.69891 0 4.5 0Z" fill="var(--fill-0, white)"/>
</svg>
