<svg preserveAspectRatio="none" width="100%" height="100%" overflow="visible" style="display: block;" viewBox="0 0 21 20" fill="none" xmlns="http://www.w3.org/2000/svg">
<path id="Vector" d="M18.555 17.4943C18.6226 17.567 18.6752 17.6523 18.7096 17.7454C18.744 17.8385 18.7595 17.9375 18.7554 18.0367C18.7513 18.1358 18.7275 18.2332 18.6854 18.3231C18.6434 18.413 18.5839 18.4937 18.5105 18.5604C18.437 18.6272 18.351 18.6787 18.2575 18.7119C18.164 18.7452 18.0649 18.7596 17.9658 18.7543C17.8667 18.749 17.7696 18.724 17.6802 18.6809C17.5908 18.6378 17.5109 18.5773 17.445 18.5031L13.5 14.1634V18.7197C13.5023 18.854 13.4697 18.9866 13.4055 19.1045C13.3412 19.2225 13.2475 19.3218 13.1334 19.3928C13.0038 19.4699 12.854 19.5061 12.7035 19.4967C12.5529 19.4874 12.4087 19.4328 12.2897 19.3403L5.74219 14.2487H1.5C1.10218 14.2487 0.720644 14.0907 0.43934 13.8094C0.158035 13.5281 0 13.1465 0 12.7487V6.74872C0 6.35089 0.158035 5.96936 0.43934 5.68806C0.720644 5.40675 1.10218 5.24872 1.5 5.24872H5.39531L2.445 2.00309C2.31403 1.85546 2.24653 1.66215 2.25713 1.46508C2.26773 1.26801 2.35558 1.08306 2.50164 0.950332C2.64769 0.817601 2.84017 0.747787 3.03736 0.756026C3.23454 0.764264 3.42053 0.849891 3.555 0.994342L18.555 17.4943ZM16.5497 12.7487C16.7425 12.7322 16.922 12.6432 17.0519 12.4997C17.1818 12.3562 17.2526 12.1688 17.25 11.9753V7.52403C17.2531 7.33016 17.1825 7.14233 17.0526 6.99844C16.9226 6.85455 16.7429 6.76531 16.5497 6.74872C16.4471 6.74191 16.3442 6.75626 16.2474 6.79089C16.1506 6.82552 16.0619 6.87968 15.9869 6.95002C15.9119 7.02035 15.8522 7.10535 15.8115 7.19975C15.7707 7.29414 15.7498 7.3959 15.75 7.49872V11.9987C15.7498 12.1015 15.7707 12.2033 15.8115 12.2977C15.8522 12.3921 15.9119 12.4771 15.9869 12.5474C16.0619 12.6178 16.1506 12.6719 16.2474 12.7065C16.3442 12.7412 16.4471 12.7555 16.5497 12.7487ZM12.8438 8.98653C12.8944 9.044 12.9615 9.08457 13.0359 9.10278C13.1103 9.12099 13.1885 9.11598 13.26 9.08841C13.3315 9.06084 13.3928 9.01203 13.4357 8.94857C13.4786 8.8851 13.501 8.81001 13.5 8.7334V0.771217C13.5017 0.657665 13.4784 0.545123 13.4318 0.441587C13.3851 0.338051 13.3162 0.246062 13.23 0.172155C13.0987 0.0635073 12.9343 0.00282259 12.7639 9.60477e-05C12.5935 -0.00263049 12.4272 0.0527638 12.2925 0.157155L8.23406 3.31091C8.19328 3.34266 8.15949 3.38249 8.13484 3.42792C8.11018 3.47335 8.09518 3.52338 8.09078 3.57488C8.08638 3.62638 8.09267 3.67823 8.10926 3.72719C8.12585 3.77614 8.15238 3.82113 8.18719 3.85934L12.8438 8.98653ZM19.4503 5.24872C19.2571 5.26531 19.0774 5.35455 18.9474 5.49844C18.8175 5.64233 18.7469 5.83016 18.75 6.02403V13.4734C18.7474 13.667 18.8182 13.8543 18.9481 13.9978C19.078 14.1413 19.2575 14.2303 19.4503 14.2468C19.5529 14.2537 19.6558 14.2393 19.7526 14.2047C19.8494 14.17 19.9381 14.1159 20.0131 14.0455C20.0881 13.9752 20.1478 13.8902 20.1885 13.7958C20.2293 13.7014 20.2502 13.5997 20.25 13.4968V5.99872C20.2502 5.8959 20.2293 5.79414 20.1885 5.69975C20.1478 5.60535 20.0881 5.52035 20.0131 5.45002C19.9381 5.37968 19.8494 5.32552 19.7526 5.29089C19.6558 5.25626 19.5529 5.24191 19.4503 5.24872Z" fill="var(--fill-0, white)"/>
</svg>
