<svg preserveAspectRatio="none" width="100%" height="100%" overflow="visible" style="display: block;" viewBox="0 0 18 18" fill="none" xmlns="http://www.w3.org/2000/svg">
<path id="Vector" d="M10.9591 1.55167L12.4283 4.5125C12.4725 4.60417 12.5783 4.73333 12.7366 4.85167C12.895 4.96917 13.0508 5.03417 13.1525 5.05167L15.8108 5.49667C16.7708 5.65833 17.5758 6.12833 17.8366 6.94833C18.0975 7.7675 17.715 8.61833 17.025 9.31L14.9591 11.3925C14.8775 11.475 14.7858 11.63 14.7283 11.8325C14.6708 12.0342 14.6658 12.2175 14.6916 12.3358L14.6925 12.3375L15.2833 14.9125C15.5283 15.985 15.4466 17.0475 14.6908 17.6033C13.9325 18.1608 12.8958 17.9142 11.9533 17.3533L9.46247 15.8658C9.35747 15.8033 9.17748 15.7525 8.96081 15.7525C8.74581 15.7525 8.56247 15.8025 8.45081 15.8675L8.44914 15.8683L5.96247 17.3525C5.02164 17.9158 3.98664 18.1583 3.22747 17.6C2.47164 17.0442 2.38664 15.9833 2.63248 14.9125L3.22331 12.3375V12.3358C3.24914 12.2175 3.24414 12.0342 3.18747 11.8325C3.12997 11.63 3.03831 11.475 2.95664 11.3925L0.889975 9.30917C0.204142 8.6175 -0.177525 7.76667 0.0816418 6.94917C0.341642 6.12917 1.14414 5.65833 2.10497 5.49667L4.76081 5.05167C4.85831 5.035 5.01248 4.97083 5.16998 4.8525C5.32914 4.73417 5.43498 4.60417 5.47914 4.5125L5.48164 4.50833L6.94831 1.55083V1.55C7.39248 0.659167 8.08331 0 8.95664 0C9.83081 0 10.52 0.660833 10.9591 1.55167Z" fill="var(--fill-0, #696AAC)"/>
</svg>
