<svg preserveAspectRatio="none" width="100%" height="100%" overflow="visible" style="display: block;" viewBox="0 0 49 30" fill="none" xmlns="http://www.w3.org/2000/svg">
<g id="Group">
<path id="Vector" d="M26.1602 29.3511C24.3942 29.3511 22.5536 29.2742 20.6714 29.1188C16.7371 28.7943 12.7908 28.1532 9.25796 27.2662C5.85652 26.412 3.11693 25.3848 1.54963 24.3744C0.399786 23.6348 -0.113035 22.9201 0.0207792 22.2486C0.225106 21.231 1.92703 20.4337 5.07847 19.8776C9.23472 19.1444 12.5673 18.6821 15.2459 18.3103C20.7499 17.5467 23.5128 17.1636 25.0256 15.5955C26.5376 14.0274 26.8469 11.2262 27.4639 5.64442C27.5328 5.02343 27.6057 4.36798 27.6826 3.67647C27.931 1.48577 28.508 0.299869 29.4495 0.0482662C31.5608 -0.515035 34.8525 3.96573 37.4967 7.56589C38.2131 8.54105 38.8894 9.46173 39.4334 10.1236C39.6979 10.4457 40.6201 10.8375 41.689 11.2911C44.2812 12.392 48.1979 14.0547 48.5352 17.0475C48.665 18.2029 48.2443 19.4721 47.2884 20.8215C46.2139 22.3335 44.4302 23.9962 41.9815 25.7646C39.8036 27.3375 36.6586 28.4104 32.6338 28.9529C30.6602 29.2181 28.4767 29.3511 26.1602 29.3511ZM29.8285 0.224548C29.7195 0.224548 29.6121 0.23817 29.5064 0.265414C28.6794 0.486567 28.1394 1.64282 27.9062 3.70211C27.8277 4.39282 27.7548 5.04907 27.6866 5.66926C27.0632 11.3015 26.7515 14.1284 25.1866 15.7518C23.6217 17.3752 20.8341 17.7622 15.2772 18.5322C12.6001 18.904 9.26838 19.364 5.11693 20.0987C1.31725 20.7694 0.367734 21.662 0.241132 22.2927C0.12735 22.856 0.622542 23.5114 1.67062 24.1861C3.2203 25.1829 5.93424 26.1997 9.31245 27.0483C12.8341 27.9313 16.7676 28.5707 20.6915 28.8944C25.0256 29.2518 29.1466 29.1957 32.6009 28.7318C36.5889 28.1941 39.6995 27.1356 41.8461 25.5843C46.4006 22.2919 48.5753 19.4321 48.3108 17.0723C47.9887 14.2101 44.1434 12.5787 41.6001 11.4978C40.4591 11.0138 39.5584 10.6308 39.2588 10.267C38.7107 9.59955 38.0312 8.67727 37.3149 7.69891C34.9783 4.52022 31.8237 0.224548 29.8285 0.224548Z" fill="var(--fill-0, white)"/>
</g>
</svg>
