<svg preserveAspectRatio="none" width="100%" height="100%" overflow="visible" style="display: block;" viewBox="0 0 31 45" fill="none" xmlns="http://www.w3.org/2000/svg">
<g id="Group">
<path id="Vector" d="M16.6985 44.1385C14.0174 44.1281 11.3948 43.7315 8.82993 42.9494C4.48377 41.6281 1.30509 39.4534 0.32592 37.1305C-0.351964 35.5231 -0.303086 33.0896 3.78105 30.6217C10.9742 26.2747 5.61839 13.6569 2.41887 6.11767C0.801882 2.30597 0.051882 0.45741 0.680888 0.0872181C1.16967 -0.199641 1.92368 0.21943 2.98778 1.36927C3.88121 2.33562 4.97897 3.79395 6.34355 5.826C8.83073 9.53113 11.6376 14.3028 14.1136 18.5119L14.7258 19.5512C15.5935 21.0239 16.6152 21.6698 17.9413 21.584C19.1248 21.5079 20.4101 20.8468 21.6528 20.2082C23.4742 19.2731 25.3588 18.3036 26.9661 19.1665C28.8748 20.1922 30.0903 23.6145 30.7931 29.9318C31.2137 33.713 30.5423 36.8316 28.7979 39.2002C27.2706 41.2739 24.9758 42.7218 21.9774 43.5039C20.35 43.9278 18.5599 44.1385 16.6985 44.1385ZM1.02143 0.223436C0.940504 0.221834 0.865183 0.241866 0.794671 0.28193C0.654446 0.364462 0.577523 0.730648 1.00621 2.00469C1.35076 3.02552 1.94131 4.41815 2.6256 6.03033C5.85397 13.6369 11.257 26.3677 3.89723 30.814C0.773036 32.701 -0.390426 34.8556 0.532651 37.0432C1.48618 39.3028 4.61278 41.4302 8.89724 42.7323C11.0222 43.3741 13.1929 43.7555 15.4093 43.8749C17.7634 43.9975 19.9549 43.7996 21.9237 43.2867C24.8676 42.5183 27.1216 41.0984 28.6152 39.0664C30.3243 36.7451 30.9814 33.6802 30.5679 29.9566C30.1985 26.6393 29.6921 24.1609 29.0182 22.3789C28.4269 20.8156 27.7194 19.8332 26.858 19.3661C25.3508 18.5584 23.6048 19.4574 21.7538 20.4093C20.4902 21.0584 19.1841 21.7306 17.9541 21.8116C17.874 21.8172 17.7955 21.8196 17.7169 21.8196C16.4253 21.8196 15.3812 21.1137 14.5302 19.669L13.9173 18.6297C11.4437 14.4214 8.63922 9.65453 6.15445 5.9518C4.36038 3.27712 2.07913 0.223436 1.02143 0.223436Z" fill="var(--fill-0, white)"/>
</g>
</svg>
