<svg preserveAspectRatio="none" width="100%" height="100%" overflow="visible" style="display: block;" viewBox="0 0 34 41" fill="none" xmlns="http://www.w3.org/2000/svg">
<path id="Vector" d="M17.8215 40.0889C14.3928 40.0889 10.7694 39.5 7.52743 38.3902C5.56909 37.7196 3.86236 36.883 2.59153 35.976C1.23175 35.0048 0.396819 33.9864 0.10996 32.9495C-0.558309 30.5369 1.9473 28.7997 4.16685 27.7676C7.99858 25.984 9.9505 23.125 10.1364 19.0248C10.2951 15.472 9.12518 11.6114 8.09153 8.20513C7.09393 4.91987 6.23416 2.08253 6.96333 0.571314C7.13961 0.207532 7.39602 0.0152242 7.72775 0H7.77022C10.1484 0 15.8447 9.35176 20.0114 16.1875L20.5122 17.008C22.0627 19.5481 24.4906 18.883 26.8423 18.2404C28.6981 17.7332 30.4505 17.2532 31.7342 18.2965C33.2694 19.5441 33.8215 22.8173 33.4713 28.5921C33.2598 32.0681 31.8856 34.8269 29.384 36.8013C27.2438 38.4832 24.2446 39.5705 20.7117 39.9415C19.751 40.0409 18.7878 40.0905 17.8215 40.0889ZM7.77422 0.223558H7.73897C7.49297 0.235577 7.30547 0.379006 7.16765 0.668269C6.47615 2.10016 7.3231 4.89904 8.30788 8.13942C9.34714 11.5625 10.5226 15.4423 10.3608 19.0337C10.1709 23.2252 8.17566 26.1482 4.2614 27.9704C1.19169 29.399 -0.168886 31.0994 0.326306 32.8886C0.862364 34.8237 3.58192 36.8005 7.60034 38.1771C11.7422 39.5954 16.513 40.1563 20.6885 39.7179C31.0915 38.6234 33.0202 32.2692 33.2438 28.5785C33.4281 25.5457 33.3616 23.2428 33.041 21.5385C32.759 20.0377 32.2846 19.0345 31.5899 18.4704C30.3944 17.5008 28.6973 17.9655 26.8992 18.4567C25.7093 18.7829 24.4785 19.1194 23.3423 19.0425C22.0435 18.9543 21.0563 18.3269 20.3199 17.1234L19.8191 16.3021C17.8287 13.0361 15.3511 8.96955 13.0923 5.74439C10.5282 2.08013 8.73736 0.223558 7.77422 0.223558Z" fill="var(--fill-0, white)"/>
</svg>
