<svg preserveAspectRatio="none" width="100%" height="100%" overflow="visible" style="display: block;" viewBox="0 0 32 43" fill="none" xmlns="http://www.w3.org/2000/svg">
<path id="Vector" d="M17.0362 42.749C14.1067 42.7394 11.2446 42.2939 8.45048 41.4133C4.13798 40.0527 1.06507 37.9061 0.232534 35.6713C-0.329165 34.1617 -0.145671 31.8901 3.92164 29.6441C11.5394 25.4317 7.24455 14.3083 4.40241 6.94695C3.06106 3.4734 2.09231 0.963781 2.77741 0.227402C2.85513 0.142467 2.94728 0.0807678 3.05465 0.041505C3.16282 0.00224223 3.2734 -0.00897577 3.38718 0.00704987C3.94808 0.0663448 4.71651 0.665704 5.73814 1.83958C6.61394 2.84519 7.6508 4.24263 8.90721 6.11122C11.2029 9.52067 13.7109 13.7258 15.9216 17.4381L16.6644 18.6817C17.4761 20.0519 18.4617 20.6761 19.763 20.6489C20.9208 20.6232 22.1853 20.0744 23.4072 19.5423C25.2037 18.7635 27.0611 17.955 28.5514 18.8724C30.3327 19.9662 31.3303 23.3316 31.6917 29.4614C31.908 33.12 31.0258 36.108 29.0683 38.346C27.3591 40.2995 24.8928 41.6272 21.7389 42.2915C20.1877 42.6064 18.6196 42.7595 17.0362 42.749ZM3.29343 0.224197C3.1516 0.221793 3.03301 0.273877 2.93926 0.379646C2.34952 1.01266 3.3968 3.725 4.60914 6.86522C6.04183 10.5768 7.82548 15.1946 8.30305 19.4678C8.56266 21.7963 8.3976 23.8083 7.81106 25.447C7.12997 27.3508 5.85673 28.8284 4.02821 29.8404C0.921637 31.5583 -0.317947 33.5479 0.44247 35.5944C1.25096 37.7651 4.26859 39.8604 8.51699 41.2002C12.9176 42.588 17.7213 42.9045 21.6949 42.0663C24.7998 41.4125 27.2245 40.1088 28.9016 38.1929C30.8175 36.003 31.6821 33.0687 31.4697 29.471C31.2798 26.2498 30.916 23.8356 30.3591 22.0824C29.8696 20.5431 29.2405 19.5543 28.4369 19.0599C27.0442 18.2042 25.3199 18.9526 23.501 19.745C22.255 20.2835 20.9681 20.8444 19.7678 20.8676C18.3952 20.8957 17.3175 20.2186 16.4713 18.7899C16.2293 18.3861 15.9817 17.9718 15.7293 17.5455C13.5178 13.8404 11.0114 9.63846 8.71971 6.23381C6.10353 2.34759 4.30144 0.328364 3.36074 0.227402C3.3383 0.224999 3.31587 0.224197 3.29343 0.224197Z" fill="var(--fill-0, white)"/>
</svg>
