<svg preserveAspectRatio="none" width="100%" height="100%" overflow="visible" style="display: block;" viewBox="0 0 36 38" fill="none" xmlns="http://www.w3.org/2000/svg">
<path id="Vector" d="M18.7892 37.5825C18.6602 37.5825 18.5328 37.5825 18.403 37.5825C14.2356 37.536 9.79485 36.7211 6.21873 35.3485C2.60655 33.9623 0.353344 32.1786 0.03844 30.4599C-0.175502 29.2884 0.402222 27.5656 4.37899 26.008C8.8245 24.2668 11.3862 21.77 12.2115 18.3765C12.9383 15.387 12.266 12.1418 11.617 9.00154C11.0048 6.04401 10.4263 3.24994 11.1338 1.01997C11.3293 0.404587 11.6538 0.064042 12.0913 0.00795232C14.4663 -0.294932 19.7348 8.11853 23.5809 14.2604C23.8405 14.673 24.0881 15.0721 24.3277 15.4519C25.6194 17.5015 27.9102 17.2419 30.1282 16.9927C32.0312 16.778 33.8293 16.5769 34.9391 17.7908C36.2428 19.2203 36.3285 22.415 35.2075 27.8445C34.5048 31.2483 32.4575 33.8197 29.1218 35.4943C26.3918 36.8621 22.8253 37.5825 18.7892 37.5825ZM12.2243 0.223497C12.1899 0.223497 12.1554 0.225901 12.121 0.230709C11.77 0.274779 11.5176 0.555228 11.3485 1.08728C10.6594 3.26036 11.2315 6.02638 11.8373 8.95507C13.1266 15.1858 14.5881 22.2483 4.45991 26.2163C1.42626 27.4054 -0.0264639 28.8581 0.258793 30.4182C0.559273 32.06 2.7612 33.7796 6.29806 35.137C9.85014 36.4999 14.2628 37.3084 18.4038 37.3557C22.5641 37.403 26.234 36.689 29.0192 35.2932C32.29 33.6538 34.2973 31.1322 34.9856 27.7996C35.5729 24.9527 35.8221 22.7596 35.7468 21.0897C35.6803 19.6185 35.3606 18.5889 34.7708 17.9422C33.738 16.8116 31.996 17.0072 30.1514 17.2147C27.8654 17.4751 25.4992 17.7403 24.1354 15.5688C23.8958 15.189 23.6466 14.79 23.3878 14.3773C21.5665 11.4679 19.2989 7.84529 17.2019 4.99032C14.8742 1.82606 13.2011 0.223497 12.2243 0.223497Z" fill="var(--fill-0, white)"/>
</svg>
