<svg preserveAspectRatio="none" width="100%" height="100%" overflow="visible" style="display: block;" viewBox="0 0 33 42" fill="none" xmlns="http://www.w3.org/2000/svg">
<path id="Vector" d="M17.4067 41.4023C14.1999 41.3927 11.0725 40.8919 8.02287 39.8991C3.79049 38.5112 0.852994 36.4111 0.161487 34.2813C-0.298449 32.863 0.00283344 30.7428 4.0461 28.6923C7.62383 26.8782 9.28168 23.8045 9.11341 19.2957C8.96838 15.4183 7.47719 11.1106 6.27928 7.64907C5.09178 4.22038 4.15347 1.50885 4.87062 0.388654C5.03729 0.129039 5.26485 -0.00237131 5.55011 3.23872e-05C6.12142 0.00804531 6.90988 0.575353 7.95476 1.73401C8.84578 2.72119 9.89787 4.1058 11.1727 5.96638C13.4908 9.3518 16.0637 13.6258 18.1294 17.0585L18.5926 17.827C19.3522 19.089 20.2993 19.6891 21.5725 19.7172C22.7032 19.7428 23.9435 19.3021 25.1423 18.879C27.002 18.2204 28.7584 17.5978 30.1415 18.5729C31.7969 19.7404 32.5741 23.0569 32.583 29.0096C32.5902 32.5649 31.4764 35.4343 29.2721 37.5385C27.3522 39.371 24.6831 40.5697 21.3386 41.1018C20.0357 41.3053 18.7256 41.4055 17.4067 41.4023ZM5.53809 0.224391C5.33857 0.224391 5.18232 0.31734 5.05972 0.508846C4.40187 1.53689 5.37142 4.33497 6.49162 7.57455C7.69434 11.0497 9.19354 15.375 9.33777 19.2861C9.4179 21.4407 9.09498 23.2348 8.35059 24.7725C7.50363 26.5209 6.08937 27.9063 4.14706 28.8911C1.05892 30.4568 -0.245564 32.2965 0.374628 34.2108C1.0429 36.2725 3.92831 38.3181 8.09258 39.6835C11.1182 40.6691 14.2232 41.1667 17.4051 41.1755C18.7128 41.1795 20.0132 41.0818 21.3049 40.8806C24.6038 40.3558 27.2328 39.1771 29.119 37.3766C31.2769 35.3165 32.3674 32.5016 32.3602 29.0112C32.3538 25.8862 32.1374 23.5265 31.6983 21.7997C31.3121 20.2813 30.7624 19.2861 30.0108 18.758C28.7232 17.8502 27.0205 18.4536 25.2168 19.0922C23.9988 19.5233 22.7392 19.9696 21.5669 19.9439C20.2272 19.9143 19.1919 19.2604 18.3979 17.9447L17.9347 17.1755C15.8714 13.7436 13.3017 9.47279 10.9868 6.09539C8.32815 2.21237 6.49883 0.238013 5.5469 0.224391H5.53809Z" fill="var(--fill-0, white)"/>
</svg>
