<svg preserveAspectRatio="none" width="100%" height="100%" overflow="visible" style="display: block;" viewBox="0 0 46 32" fill="none" xmlns="http://www.w3.org/2000/svg">
<path id="Vector" d="M23.6473 31.0902C23.2323 31.0902 22.8124 31.0854 22.3893 31.0757C15.5832 30.9195 8.00789 29.4403 3.53594 27.3947C1.11527 26.2873 -0.105087 25.1415 0.00709276 24.0806C0.128086 22.9315 1.77793 21.9964 4.90934 21.3001C13.8292 19.3169 17.9117 18.2224 20.104 16.5757C22.338 14.8979 22.552 12.5806 22.9422 8.37382C23.0888 6.80651 23.2539 5.03007 23.5496 2.90587C23.7915 1.1751 24.3092 0.234398 25.1313 0.0372827C26.1377 -0.204704 27.5416 0.72959 29.4262 2.88985C31.0167 4.71517 32.713 7.15026 34.076 9.10379C34.6537 9.93472 35.2002 10.7144 35.6641 11.3466C36.1529 12.0124 37.5624 12.4564 39.0536 12.9259C41.5776 13.7216 44.439 14.6222 45.0504 16.9548C45.6217 19.1366 44.0672 22.1527 40.2964 26.1767C38.6201 27.9668 36.0696 29.2913 32.7154 30.1158C30.0864 30.764 27.0416 31.0902 23.6473 31.0902ZM25.451 0.227988C25.3605 0.227187 25.2715 0.237603 25.1834 0.258437C24.4718 0.426706 23.9967 1.33135 23.7723 2.93712C23.4766 5.05571 23.3116 6.82975 23.1665 8.39225C22.7699 12.6631 22.5512 15.0156 20.2387 16.7528C18.0127 18.4251 13.9109 19.5269 4.95741 21.5173C1.18818 22.3554 0.305971 23.3858 0.229849 24.1022C0.129689 25.0437 1.33722 26.1398 3.62809 27.1879C8.0752 29.2216 15.6161 30.6927 22.3933 30.8482C26.2763 30.9371 29.7299 30.6174 32.6601 29.8971C35.9702 29.0838 38.4839 27.7801 40.1305 26.0229C42.0872 23.9355 43.4614 22.0878 44.217 20.5333C44.8797 19.1695 45.0864 17.9844 44.8316 17.0116C44.2515 14.7993 41.4542 13.9179 38.9839 13.1398C37.3901 12.6374 36.0135 12.2048 35.4807 11.4772C35.0159 10.8442 34.4686 10.0597 33.8901 9.22959C32.5295 7.27927 30.8372 4.85139 29.2539 3.03488C27.6273 1.16949 26.3492 0.225584 25.451 0.225584V0.227988Z" fill="var(--fill-0, white)"/>
</svg>
