<svg preserveAspectRatio="none" width="100%" height="100%" overflow="visible" style="display: block;" viewBox="0 0 39 36" fill="none" xmlns="http://www.w3.org/2000/svg">
<path id="Vector" d="M19.9875 35.2299C17.9779 35.2259 15.9779 35.0816 13.9891 34.7964C10.3561 34.2804 6.93219 33.3413 4.34725 32.1465C1.67017 30.9126 0.127698 29.4999 0.00750596 28.1666C-0.0557954 27.4478 0.281544 26.7635 1.00991 26.1353C1.77433 25.4775 2.96904 24.8765 4.57161 24.3517C16.2182 20.5255 15.7239 15.3869 15.1525 9.4366C14.9097 6.90936 14.6589 4.29638 15.2872 1.56481C15.5011 0.63612 15.8937 0.115287 16.4546 0.0167291C18.8216 -0.398335 23.5989 6.9983 27.0868 12.3989C27.453 12.9671 27.7992 13.5031 28.1221 13.9983C29.1389 15.5568 31.2391 15.6449 33.2687 15.7307C35.2319 15.814 37.2615 15.8997 38.2214 17.3669C39.3008 19.0175 38.8881 22.1433 36.9226 27.2034C36.2239 29.0023 35.0339 30.5336 33.3833 31.7555C31.8833 32.8669 29.9979 33.7299 27.7799 34.3148C25.4819 34.9222 22.8208 35.2299 19.9875 35.2299ZM16.6565 0.224261C16.6021 0.224261 16.5476 0.229069 16.4939 0.238684C16.0299 0.319614 15.6982 0.782755 15.5067 1.61529C14.8857 4.3116 15.1357 6.90615 15.3769 9.41497C15.663 12.4029 15.9346 15.2251 14.6493 17.7844C13.219 20.6377 10.0388 22.7924 4.64212 24.564C1.63731 25.5512 0.111673 26.7908 0.233467 28.1497C0.343243 29.3965 1.83844 30.7475 4.4418 31.9462C7.00751 33.1297 10.4097 34.0632 14.0203 34.576C19.0147 35.286 23.8809 35.1161 27.7239 34.0993C29.9146 33.5199 31.7743 32.6714 33.2511 31.5776C34.8665 30.3821 36.0315 28.8829 36.7142 27.1249C37.7415 24.4791 38.3312 22.3965 38.5155 20.7531C38.6782 19.3044 38.5211 18.2379 38.0339 17.4919C37.1373 16.1217 35.2543 16.0424 33.2599 15.9574C31.1726 15.8701 29.0147 15.7787 27.9346 14.1233C27.6109 13.6281 27.2647 13.0912 26.8953 12.5231C25.2375 9.95663 23.175 6.76192 21.2511 4.27715C19.1718 1.58564 17.6269 0.224261 16.6565 0.224261Z" fill="var(--fill-0, white)"/>
</svg>
