<svg preserveAspectRatio="none" width="100%" height="100%" overflow="visible" style="display: block;" viewBox="0 0 38 37" fill="none" xmlns="http://www.w3.org/2000/svg">
<path id="Vector" d="M19.3713 36.3871C18.3329 36.3871 17.3617 36.3431 16.4971 36.2782C12.5292 35.9825 8.4691 35.0698 5.35452 33.7758C2.12535 32.4336 0.230322 30.8407 0.0195852 29.291C-0.0837802 28.5258 0.22231 27.7926 0.930643 27.1139C1.67503 26.3983 2.86574 25.7453 4.47632 25.1668C7.06366 24.2381 9.04843 23.1668 10.5396 21.8935C11.8625 20.7645 12.7648 19.5009 13.2992 18.0306C14.2936 15.2918 13.8257 12.2285 13.3721 9.26614C12.9611 6.57944 12.5364 3.79979 13.2111 1.28136C13.4162 0.515333 13.7736 0.0890507 14.2728 0.0121276C16.6478 -0.351655 21.6678 7.54578 25.3337 13.3134C25.6454 13.8038 25.9435 14.2733 26.2255 14.7157C27.3794 16.5201 29.5845 16.4448 31.7159 16.3719C33.6798 16.3046 35.534 16.2405 36.5669 17.5706C37.7592 19.1051 37.5997 22.2653 36.0669 27.5161C35.8145 28.3895 35.4523 29.2149 34.9795 29.9921C34.506 30.7685 33.9395 31.4697 33.2784 32.0947C32.0548 33.2589 30.4891 34.2052 28.623 34.908C25.5709 36.0554 22.2159 36.3871 19.3713 36.3871ZM14.4427 0.225269C14.3978 0.225269 14.3529 0.228474 14.308 0.234884C13.905 0.297384 13.6093 0.668378 13.429 1.33985C12.7672 3.81341 13.1887 6.56822 13.5957 9.23248C14.0532 12.2229 14.526 15.3158 13.5116 18.1075C12.9635 19.6147 12.0396 20.9104 10.6863 22.065C9.17343 23.3567 7.16702 24.4408 4.55564 25.3799C1.53721 26.4633 0.04763 27.8054 0.243143 29.2605C0.440258 30.7068 2.33449 32.2742 5.44186 33.5682C8.53481 34.8543 12.5709 35.7605 16.5156 36.0546C19.7215 36.2942 24.413 36.2525 28.5452 34.6948C32.4162 33.2365 34.8746 30.7982 35.8529 27.4496C36.6558 24.7004 37.0717 22.5594 37.1238 20.9032C37.1702 19.444 36.9306 18.3967 36.3922 17.7036C35.429 16.4641 33.6302 16.5258 31.7255 16.5907C29.5308 16.6668 27.2616 16.7437 26.038 14.8318C25.756 14.3911 25.4579 13.9216 25.1454 13.4288C23.4058 10.6964 21.2407 7.29097 19.2319 4.62431C17.0276 1.70283 15.4186 0.224467 14.4427 0.224467V0.225269Z" fill="var(--fill-0, white)"/>
</svg>
