<svg preserveAspectRatio="none" width="100%" height="100%" overflow="visible" style="display: block;" viewBox="0 0 50 48" fill="none" xmlns="http://www.w3.org/2000/svg">
<g id="Frame 2087327283">
<path id="Subtract" d="M45.4229 0.623047C46.1315 0.988132 46.9261 1.52488 47.6348 2.46973L22.0137 20.1016L21.4336 21.541C21.0905 22.3344 20.8545 23.0206 20.8965 23.0869C20.918 23.1513 21.7129 23.1298 24.376 22.8936L49.0742 5.86328L49.1387 7.17285C49.1816 8.03181 49.0956 8.56932 48.9238 8.71973C48.7735 8.87006 43.4466 12.5641 25.5566 24.9131L23.9893 28.0264L27.4902 27.7051L49.0742 12.8428L49.1387 14.2178C49.1816 15.1406 49.1169 15.613 48.9238 15.7207C48.7735 15.8066 44.1985 18.9424 28.8857 29.5518L28.1338 30.9688C27.7257 31.7634 27.4258 32.4512 27.4902 32.5156C27.5567 32.5584 28.3312 32.5581 30.8184 32.3223L39.71 26.2012C44.6066 22.8294 48.752 20.0166 48.9023 19.9092C49.117 19.8019 49.1601 20.0598 49.0742 22.5723L40.5908 28.4131C32.1935 34.2117 32.1072 34.2768 31.4199 35.5439C31.0336 36.2522 30.7113 36.896 30.7109 36.9824C30.7109 37.0898 31.4416 37.1543 33.9326 37.1543L41.4492 32C45.5942 29.1651 49.0098 26.8457 49.0742 26.8457C49.1383 26.8612 49.1599 30.6309 49.0742 43.5117L48.5156 44.5635C48.215 45.1863 47.5056 46.0246 46.8613 46.54C46.2385 47.0554 45.3366 47.5919 44.8428 47.7207C44.1336 47.9354 39.387 48 24.376 48C5.54291 48 4.78951 47.9783 3.75879 47.5918C3.17892 47.3556 2.27618 46.7762 1.76074 46.3037C1.18088 45.7453 0.687398 45.0144 0.408203 44.3057C0.150549 43.5755 2.32168e-06 42.6306 0 40.1611H12.4561V38.6582H0V21.584C0 4.81191 0.000252175 4.48875 0.451172 3.50098C0.687395 2.92116 1.13782 2.19035 1.45996 1.86816C1.7821 1.52455 2.42694 1.05265 2.89941 0.794922C3.3717 0.558777 3.99411 0.279389 4.29492 0.193359C4.59559 0.107454 13.6804 0.021477 44.1338 0L45.4229 0.623047ZM20.1025 19.8447C20.1025 19.8233 19.4147 21.7557 18.5986 24.1182C17.804 26.502 16.2359 30.711 15.1191 33.4385C14.0024 36.1875 13.1006 38.4864 13.1006 38.5508C13.1186 38.6149 17.343 38.6357 22.5078 38.6357C28.9281 38.6143 31.4409 38.5507 30.4971 38.4219C29.7241 38.3145 29.0579 38.1641 28.9932 38.0996C28.9287 38.0352 29.0147 37.3259 29.165 36.5098C29.2939 35.6724 29.4228 34.878 29.4229 34.7275C29.4229 34.5772 28.7358 34.3192 27.6621 34.083C26.6742 33.8682 25.8359 33.6533 25.7715 33.5889C25.7078 33.5216 25.7933 32.7068 25.9434 31.7637C26.0722 30.8405 26.1581 30.0033 26.1152 29.8955C26.0723 29.8096 25.3639 29.6162 24.5693 29.4658C23.7537 29.2941 22.938 29.1006 22.7656 28.9932C22.4864 28.8214 22.4864 28.5638 22.7012 27.0176C22.83 26.0301 22.9149 25.193 22.8721 25.1279C22.8506 25.0635 21.9703 24.8701 20.9609 24.6982C19.5007 24.4405 19.1358 24.3114 19.2217 24.0537C19.2646 23.8819 19.5011 22.8726 19.7373 21.8203C19.9512 20.7721 20.1224 19.894 20.1025 19.8447Z" fill="var(--fill-0, #545454)"/>
</g>
</svg>
