<svg preserveAspectRatio="none" width="100%" height="100%" overflow="visible" style="display: block;" viewBox="0 0 157 40" fill="none" xmlns="http://www.w3.org/2000/svg">
<g id="e2open">
<g id="Vector">
<path fill-rule="evenodd" clip-rule="evenodd" d="M89.2629 8.04035C90.0961 8.04035 91.0334 8.08785 91.4405 8.16374C91.8287 8.23963 92.4819 8.40084 92.8795 8.54313C93.2866 8.67593 93.902 8.93207 94.2523 9.1123C94.6121 9.28306 95.2371 9.6816 95.6536 9.99465C96.0702 10.3077 96.6099 10.7724 96.8465 11.0285C97.0832 11.2847 97.4808 11.7685 97.727 12.1101C97.9731 12.4516 98.3708 13.0682 98.598 13.4856C98.8252 13.903 99.1376 14.6334 99.2986 15.0983C99.4595 15.5631 99.6679 16.3125 99.772 16.7583C99.8667 17.2042 99.9991 18.0105 100.065 18.5607C100.132 19.1773 100.16 20.088 100.122 20.9323C100.084 21.7102 99.9802 22.7632 99.8572 23.3513C99.753 23.93 99.5068 24.8218 99.3269 25.3435C99.147 25.8653 98.8157 26.6336 98.6074 27.051C98.3897 27.4684 98.0109 28.0851 97.7553 28.4266C97.5092 28.7681 97.0453 29.3183 96.7139 29.6503C96.3921 29.9823 95.824 30.4661 95.4642 30.7222C95.1044 30.9879 94.527 31.3389 94.1861 31.5097C93.8453 31.671 93.315 31.8986 93.0026 32.0125C92.6901 32.1168 92.0747 32.2781 91.6298 32.3729C91.0428 32.5057 90.4275 32.5436 89.3104 32.5436C88.0986 32.5436 87.6157 32.4963 86.8962 32.335C86.2998 32.1927 85.6464 31.9556 84.9553 31.6046C84.3872 31.32 83.6772 30.8836 83.3837 30.6369C83.0902 30.3808 82.7305 30.0202 82.579 29.8305C82.4276 29.6313 82.276 29.4986 82.2286 29.5175C82.1908 29.546 82.1624 31.9081 82.1624 40H75.3458V8.60014H82.1624V9.83337C82.1624 10.5063 82.1907 11.0656 82.2191 11.0666C82.2475 11.0666 82.6073 10.7345 83.005 10.3266C83.4783 9.86177 84.0086 9.44441 84.4914 9.16931C84.8985 8.93215 85.5329 8.64751 85.9021 8.52419C86.2713 8.41035 86.8394 8.24909 87.1802 8.18269C87.5494 8.09732 88.373 8.04035 89.2629 8.04035ZM88.07 13.3907C87.6534 13.3718 87.038 13.3908 86.6972 13.4382C86.2996 13.4951 85.8074 13.6658 85.3246 13.9029C84.908 14.1116 84.3209 14.5101 84.0085 14.7853C83.7055 15.0604 83.2701 15.5822 83.0429 15.9521C82.8251 16.3126 82.5315 16.9386 82.399 17.3275C82.2759 17.7164 82.115 18.3331 82.0488 18.7031C81.9825 19.1205 81.9541 19.8605 81.9919 20.6953C82.0203 21.6533 82.0961 22.2225 82.2476 22.7347C82.3517 23.1237 82.5884 23.7403 82.7683 24.1103C82.9387 24.4802 83.3173 25.0305 83.5919 25.3435C83.8759 25.6566 84.3589 26.0834 84.6713 26.2921C84.9743 26.4913 85.5707 26.7855 85.9873 26.9278C86.5932 27.1365 86.9057 27.1934 87.5968 27.1934C88.0607 27.1934 88.7139 27.1269 89.0358 27.051C89.3671 26.9751 89.8784 26.7854 90.1719 26.6336C90.4748 26.4818 90.9009 26.2257 91.1187 26.0644C91.3459 25.9031 91.7341 25.4858 91.9991 25.1254C92.2547 24.7744 92.5956 24.1673 92.7471 23.7783C92.8986 23.3894 93.0973 22.6778 93.1825 22.213C93.315 21.5395 93.334 21.0557 93.2961 19.9363C93.2677 19.149 93.1731 18.2099 93.0879 17.8494C93.0122 17.4794 92.747 16.7868 92.5198 16.303C92.2074 15.6674 91.9517 15.288 91.5446 14.8801C91.2417 14.5861 90.7399 14.2066 90.4275 14.0359C90.1246 13.8746 89.6323 13.6753 89.3482 13.5899C89.0642 13.5045 88.4866 13.4192 88.07 13.3907Z" fill="var(--fill-0, #545454)"/>
<path fill-rule="evenodd" clip-rule="evenodd" d="M12.0271 8.04035C12.9075 8.03087 13.9489 8.07833 14.3465 8.13524C14.7536 8.19215 15.4258 8.31547 15.8424 8.4293C16.2589 8.53365 16.9596 8.78041 17.4046 8.97014C17.8495 9.15987 18.5975 9.5677 19.0613 9.87126C19.5253 10.1748 20.2544 10.7725 20.6804 11.1994C21.097 11.6168 21.6555 12.2903 21.9206 12.6792C22.1857 13.0682 22.5454 13.6848 22.7253 14.0548C22.9146 14.4153 23.1893 15.1077 23.3502 15.5725C23.5112 16.0374 23.7005 16.7869 23.7857 17.2328C23.8615 17.6787 23.9751 18.485 24.0224 19.0352C24.0792 19.5854 24.1455 20.5815 24.2213 22.4977L15.6342 22.5262C10.9004 22.5451 7.02809 22.5639 7.00916 22.5734C6.99032 22.5832 7.06608 22.9342 7.16071 23.3513C7.26485 23.7687 7.46369 24.3664 7.61517 24.6795C7.75718 24.9925 8.12635 25.5237 8.41983 25.8652C8.73224 26.2352 9.19617 26.6241 9.55592 26.8423C9.88726 27.0415 10.4175 27.2787 10.7299 27.3736C11.0423 27.4779 11.6388 27.5823 12.0554 27.6202C12.6708 27.6676 12.9548 27.6391 13.5702 27.4779C13.9867 27.3735 14.5547 27.146 14.8293 26.9753C15.1133 26.814 15.4731 26.5008 15.6435 26.2921C15.8139 26.0834 16.0696 25.685 16.4578 24.9167L19.9607 24.9356C22.5832 24.9546 23.4827 24.9926 23.5774 25.078C23.6815 25.1823 23.6436 25.3246 23.4164 25.8842C23.2649 26.2636 22.8958 26.9468 22.6118 27.4021C22.3278 27.8574 21.8543 28.4929 21.5608 28.8249C21.2768 29.157 20.6803 29.7167 20.2353 30.0677C19.7335 30.4756 19.0235 30.9215 18.304 31.2725C17.6791 31.5855 16.7797 31.946 16.3158 32.0693C15.8424 32.2021 15.0187 32.3729 14.4696 32.4583C13.9205 32.5341 13.0874 32.6006 12.6235 32.6006C12.1502 32.6006 11.3738 32.5531 10.891 32.5057C10.4176 32.4488 9.68862 32.3445 9.2815 32.2591C8.88386 32.1737 8.21162 31.9934 7.79505 31.8416C7.37848 31.6993 6.81987 31.4717 6.56425 31.3484C6.29916 31.2251 5.87305 30.9974 5.61742 30.8456C5.35232 30.6938 4.86959 30.3523 4.52879 30.0867C4.18795 29.8211 3.6956 29.3847 3.43997 29.1286C3.17488 28.8724 2.76772 28.4075 2.53104 28.0945C2.29434 27.7814 1.92508 27.2502 1.71682 26.9087C1.50852 26.5672 1.15822 25.8462 0.940482 25.2961C0.713275 24.7459 0.429395 23.8068 0.306312 23.2092C0.154837 22.5072 0.0506488 21.6534 0.0127757 20.8376C-0.0156268 20.0502 0.00333339 19.2248 0.069606 18.7031C0.13588 18.2382 0.287247 17.4414 0.400855 16.9481C0.523927 16.4548 0.760592 15.7054 0.921539 15.288C1.09195 14.8706 1.39495 14.2255 1.59377 13.865C1.79259 13.4951 2.12401 12.9827 2.32283 12.7171C2.52164 12.461 2.87188 12.0152 3.10855 11.7496C3.34523 11.4745 3.82813 11.0002 4.19736 10.7062C4.5571 10.4026 5.03042 10.0515 5.23873 9.9187C5.44701 9.77641 5.95842 9.5014 6.37499 9.2927C6.79155 9.08401 7.55833 8.77089 8.07903 8.60014C8.5997 8.4294 9.3476 8.23972 9.73579 8.1733C10.124 8.1069 11.1561 8.04984 12.0271 8.04035ZM12.3773 12.9165C11.6104 12.8785 11.3737 12.8974 10.7678 13.0871C10.3796 13.201 9.86837 13.4097 9.63169 13.5425C9.395 13.6848 8.96906 14.0074 8.68504 14.2635C8.35369 14.5576 8.03175 14.9844 7.81399 15.3923C7.62466 15.7528 7.37852 16.3409 7.27437 16.7109C7.16076 17.0713 7.07556 17.4698 7.07555 17.5837V17.802H17.111C17.111 17.47 17.0259 17.0335 16.9218 16.6162C16.8082 16.1988 16.5903 15.601 16.4199 15.2974C16.2495 14.9939 15.9843 14.586 15.8234 14.3963C15.6625 14.2066 15.3216 13.9124 15.066 13.7512C14.8104 13.5804 14.2992 13.3338 13.9395 13.2105C13.4945 13.0492 12.9832 12.9544 12.3773 12.9165Z" fill="var(--fill-0, #545454)"/>
<path fill-rule="evenodd" clip-rule="evenodd" d="M111.796 8.1733C112.316 8.07844 113.064 8.04988 114.589 8.06885C116.444 8.09731 116.766 8.12588 117.571 8.33458C118.063 8.46739 118.849 8.73297 119.322 8.9227C119.796 9.11242 120.534 9.49188 120.97 9.76698C121.405 10.0326 122.077 10.5638 122.475 10.9243C122.873 11.2848 123.431 11.9109 123.715 12.2998C124.009 12.6888 124.444 13.4002 124.69 13.865C124.927 14.3299 125.239 15.0414 125.372 15.4304C125.514 15.8193 125.732 16.692 125.855 17.3749C125.978 18.058 126.12 19.3103 126.177 20.1735C126.234 21.0368 126.281 21.9095 126.281 22.4977L121.992 22.507C119.644 22.5165 115.781 22.5261 109.145 22.5451V22.8486C109.145 23.0193 109.211 23.3989 109.296 23.6835C109.381 23.968 109.599 24.4992 109.789 24.8597C109.987 25.2202 110.376 25.7609 110.66 26.0455C110.944 26.3395 111.417 26.719 111.701 26.8898C111.985 27.051 112.411 27.2693 112.648 27.3547C112.922 27.459 113.481 27.5254 114.21 27.5538C115.194 27.5918 115.431 27.5728 115.961 27.3925C116.302 27.2787 116.766 27.0606 117.003 26.9183C117.24 26.7665 117.609 26.4155 117.826 26.131C118.035 25.8559 118.281 25.4669 118.518 24.9167H122.163C124.17 24.9167 125.808 24.9357 125.808 24.9641C125.807 24.993 125.656 25.3723 125.476 25.8178C125.296 26.2637 124.965 26.9088 124.757 27.2598C124.539 27.6202 124.198 28.1135 124.009 28.3792C123.819 28.6353 123.384 29.1097 123.053 29.4132C122.721 29.7263 122.191 30.172 121.879 30.3997C121.566 30.6274 120.932 31.0163 120.458 31.244C119.985 31.4811 119.247 31.7942 118.802 31.9365C118.357 32.0883 117.618 32.2781 117.145 32.3729C116.511 32.4962 115.838 32.5436 114.541 32.5436C113.074 32.5531 112.61 32.5152 111.701 32.3255C111.105 32.2116 110.252 31.9745 109.807 31.8227C109.363 31.6614 108.681 31.3768 108.293 31.1776C107.905 30.9784 107.28 30.6085 106.92 30.3428C106.56 30.0867 106.03 29.6694 105.746 29.4132C105.462 29.1571 104.951 28.5593 104.6 28.0945C104.25 27.6297 103.786 26.9182 103.578 26.5293C103.36 26.1404 103.057 25.4574 102.896 25.0116C102.726 24.5657 102.508 23.8636 102.404 23.4462C102.252 22.8486 102.205 22.2604 102.167 20.6478C102.129 18.9782 102.148 18.4565 102.281 17.7545C102.366 17.2897 102.584 16.4549 102.773 15.9047C102.953 15.3545 103.294 14.5481 103.521 14.1022C103.758 13.6564 104.155 13.0207 104.401 12.6792C104.657 12.3377 105.282 11.6548 105.793 11.1615C106.361 10.6113 107.052 10.0611 107.535 9.76698C107.98 9.50137 108.615 9.16927 108.955 9.02697C109.296 8.88468 109.912 8.66645 110.328 8.54313C110.745 8.41032 111.408 8.24919 111.796 8.1733ZM114.484 12.9165C113.992 12.888 113.509 12.926 113.112 13.0113C112.771 13.0872 112.241 13.277 111.928 13.4192C111.616 13.571 111.124 13.903 110.839 14.1686C110.555 14.4342 110.158 14.918 109.959 15.25C109.76 15.582 109.495 16.1892 109.372 16.5877C109.239 16.9956 109.135 17.4319 109.135 17.5647V17.802H119.171C119.171 17.3277 119.086 16.8817 118.972 16.5213C118.859 16.1513 118.65 15.6105 118.499 15.307C118.347 15.0129 118.044 14.5671 117.817 14.3299C117.599 14.0928 117.164 13.7513 116.851 13.5805C116.539 13.4098 116.047 13.201 115.763 13.1156C115.478 13.0303 114.901 12.9449 114.484 12.9165Z" fill="var(--fill-0, #545454)"/>
<path fill-rule="evenodd" clip-rule="evenodd" d="M58.3516 8.21119C58.9859 8.0689 59.4593 8.04988 61.2392 8.06885C62.8108 8.09731 63.5587 8.1447 64.0795 8.26802C64.4676 8.3534 65.1681 8.55271 65.6415 8.71397C66.1149 8.86575 66.8344 9.17886 67.251 9.40654C67.6676 9.63421 68.3303 10.0421 68.7185 10.3172C69.1067 10.5923 69.7221 11.1141 70.0724 11.4841C70.4226 11.854 70.9434 12.4801 71.2274 12.869C71.5019 13.2579 71.909 13.9409 72.1268 14.3867C72.3445 14.8326 72.6475 15.5537 72.799 15.9995C72.941 16.4454 73.1398 17.2138 73.225 17.7071C73.3291 18.3237 73.3859 19.1584 73.3859 20.3631C73.3954 21.8145 73.3575 22.289 73.1871 23.0668C73.0829 23.5886 72.8748 24.338 72.7328 24.7269C72.6002 25.1158 72.3445 25.7325 72.1646 26.1025C71.9942 26.4724 71.6439 27.0889 71.3883 27.4779C71.1232 27.8668 70.6215 28.5026 70.2712 28.8915C69.9114 29.2804 69.2771 29.8495 68.8605 30.1531C68.4439 30.4661 67.5919 30.969 66.967 31.282C66.3422 31.5856 65.509 31.9176 65.1208 32.0314C64.7327 32.1358 64.0321 32.2971 63.5588 32.3825C62.9907 32.4773 62.148 32.5341 61.0497 32.5436C59.8285 32.5436 59.1469 32.5057 58.4463 32.3729C57.9256 32.2781 57.0734 32.0504 56.5527 31.8701C56.032 31.6899 55.3126 31.3958 54.9433 31.2061C54.5741 31.0258 53.987 30.6749 53.6178 30.4377C53.2486 30.1911 52.6616 29.7167 52.3019 29.3752C51.9421 29.0337 51.3836 28.3982 51.0427 27.9523C50.7114 27.5065 50.2379 26.7191 49.9822 26.1974C49.7266 25.6756 49.4142 24.9071 49.2817 24.4897C49.1491 24.0723 48.9692 23.4083 48.8651 23.0194C48.7325 22.4502 48.6948 21.9189 48.6948 20.3631C48.6948 18.6651 48.7231 18.2951 48.9219 17.4224C49.045 16.8722 49.2439 16.1228 49.3764 15.7623C49.5089 15.3923 49.7929 14.7567 50.0012 14.3393C50.2095 13.9219 50.5504 13.3244 50.7681 13.0113C50.9764 12.6983 51.3834 12.1671 51.6769 11.8256C51.9704 11.4841 52.6522 10.8768 53.1918 10.4689C53.741 10.061 54.6119 9.52033 55.1326 9.2642C55.6533 9.00807 56.4202 8.70441 56.8368 8.59058C57.2534 8.47674 57.935 8.30605 58.3516 8.21119ZM61.419 13.4097C61.0309 13.3812 60.4438 13.4001 60.1125 13.4476C59.7906 13.495 59.2793 13.628 58.9764 13.7418C58.6829 13.8557 58.1622 14.1782 57.8213 14.4437C57.4805 14.7189 57.0451 15.1457 56.8557 15.4019C56.6664 15.6485 56.3823 16.1323 56.2308 16.4738C56.0698 16.8153 55.8426 17.413 55.729 17.802C55.5208 18.447 55.5019 18.6842 55.5019 20.3157C55.5114 22.0327 55.5207 22.1561 55.7763 22.9245C55.9183 23.3704 56.193 24.025 56.3823 24.395C56.5906 24.8028 56.9693 25.3056 57.3479 25.685C57.7077 26.055 58.2001 26.4344 58.5315 26.5957C58.8439 26.757 59.393 26.9562 59.7623 27.051C60.2546 27.1744 60.6617 27.2028 61.3718 27.1649C62.006 27.1364 62.4888 27.0606 62.8391 26.9278C63.1231 26.814 63.6155 26.5579 63.9279 26.3586C64.2403 26.1594 64.7232 25.7229 64.9978 25.3814C65.2723 25.0494 65.6415 24.4802 65.8214 24.1103C66.0013 23.7403 66.2379 23.1047 66.361 22.6873C66.5503 22.0327 66.5788 21.7101 66.5788 20.3157C66.5788 18.9118 66.5503 18.5987 66.361 17.9441C66.2379 17.5267 65.9634 16.7963 65.7362 16.3315C65.4238 15.6674 65.1966 15.3353 64.7138 14.861C64.373 14.5195 63.89 14.1307 63.6344 13.9884C63.3787 13.8461 62.9338 13.6754 62.6498 13.5995C62.3658 13.5236 61.8072 13.4381 61.419 13.4097Z" fill="var(--fill-0, #545454)"/>
<path d="M33.3195 0.10983C33.897 0.0149726 34.6449 -0.0134168 36.0934 0.00555469C37.8449 0.0340137 38.1953 0.0719692 39.0284 0.280669C39.5491 0.41348 40.2687 0.64109 40.6379 0.773893C41.0071 0.916189 41.5089 1.13432 41.774 1.26712C42.0296 1.39994 42.5882 1.75102 43.0048 2.05457C43.4214 2.34865 44.0367 2.88929 44.368 3.24975C44.6994 3.61023 45.0971 4.0941 45.258 4.33126C45.419 4.56842 45.7029 5.09966 45.9018 5.51705C46.0911 5.93445 46.3089 6.48467 46.3941 6.75028C46.4793 7.00642 46.5929 7.58511 46.6591 8.03096C46.7254 8.51475 46.7538 9.33052 46.716 10.0704C46.6781 10.9242 46.5929 11.5789 46.432 12.2049C46.3089 12.6982 46.0628 13.4286 45.8924 13.8176C45.722 14.2065 45.3906 14.8516 45.1539 15.2406C44.9267 15.6295 44.4437 16.3125 44.0934 16.7583C43.7337 17.2042 42.8533 18.1149 42.1338 18.7884C41.4142 19.4619 39.549 21.1505 37.9869 22.5355C36.4248 23.9205 34.9574 25.2392 34.2946 25.8463L47.5019 25.9601V31.9365H24.5904L24.6472 31.2914C24.6756 30.9404 24.7797 30.1626 24.8744 29.565C24.9785 28.9673 25.149 28.199 25.2626 27.8574C25.3668 27.5159 25.6318 26.8518 25.8306 26.387C26.0389 25.9221 26.3987 25.2012 26.6544 24.7933C26.9005 24.3854 27.3076 23.7687 27.5727 23.4177C27.8379 23.0571 29.6178 21.3212 31.6911 19.3671C33.6887 17.4889 35.8189 15.4873 36.4248 14.9276C37.0213 14.3584 37.7218 13.6469 37.9869 13.3433C38.2425 13.0397 38.6212 12.518 38.82 12.186C39.0189 11.8635 39.265 11.2848 39.3786 10.9243C39.5206 10.4879 39.5869 10.004 39.5964 9.50125C39.5964 9.08386 39.5397 8.52414 39.4639 8.26802C39.3882 8.0024 39.2273 7.59451 39.1042 7.3384C38.9906 7.09177 38.7444 6.74085 38.574 6.55112C38.413 6.3614 37.9964 6.07683 37.6556 5.91556C37.1444 5.67841 36.8887 5.62138 36.1409 5.58344C35.5823 5.55498 35.0425 5.5835 34.7206 5.65939C34.4366 5.72579 34.0484 5.85858 33.8685 5.95344C33.6886 6.04832 33.3762 6.26655 33.1869 6.43728C32.9975 6.60805 32.6945 6.95897 32.5147 7.22457C32.3442 7.4807 32.1171 8.01196 31.833 9.07442H24.6377L24.7041 8.53375C24.7419 8.23018 24.8838 7.60399 25.0164 7.12967C25.1489 6.65535 25.452 5.89646 25.6792 5.42216C25.9064 4.94784 26.3609 4.22692 26.6923 3.80953C27.0236 3.39213 27.6579 2.75645 28.0934 2.40546C28.5383 2.05447 29.3053 1.55182 29.7976 1.30518C30.2899 1.04905 31.1135 0.707495 31.6153 0.546224C32.1265 0.384961 32.8934 0.185727 33.3289 0.10983H33.3195Z" fill="var(--fill-0, #545454)"/>
<path d="M142.234 8.06885C143.786 8.09731 144.156 8.13538 144.932 8.33458C145.424 8.46739 146.153 8.72351 146.541 8.90375C146.93 9.08398 147.507 9.40639 147.819 9.61509C148.132 9.83327 148.624 10.2508 148.918 10.5638C149.211 10.8674 149.628 11.3702 149.836 11.6832C150.044 11.9963 150.319 12.4611 150.452 12.7267C150.575 12.9828 150.792 13.5235 150.925 13.9125C151.058 14.3014 151.237 15.0128 151.332 15.4776C151.465 16.2176 151.493 17.3371 151.559 31.9365H144.79L144.714 24.7554C144.667 20.7996 144.601 17.2896 144.563 16.9481C144.515 16.6066 144.364 16.0754 144.212 15.7623C144.07 15.4493 143.758 14.9844 143.521 14.7282C143.285 14.4816 142.934 14.1971 142.754 14.1022C142.575 14.0074 142.168 13.8651 141.855 13.7797C141.514 13.6943 140.889 13.628 140.321 13.628C139.545 13.628 139.195 13.6754 138.617 13.8556C138.21 13.9884 137.604 14.2729 137.273 14.5006C136.932 14.7283 136.515 15.0793 136.345 15.288C136.165 15.4967 135.853 16.009 135.644 16.4264C135.446 16.8438 135.218 17.4415 135.143 17.7545C135.029 18.2099 134.991 19.7092 134.877 31.8891L128.174 31.9365V8.60014H134.896V9.73848C134.896 10.431 134.934 10.8768 134.991 10.8768C135.039 10.8766 135.436 10.5541 135.862 10.1653C136.373 9.69105 136.922 9.30214 137.453 9.03653C137.898 8.80886 138.475 8.55274 138.731 8.46736C138.986 8.38199 139.479 8.25857 139.819 8.18269C140.274 8.07834 140.899 8.04988 142.234 8.06885Z" fill="var(--fill-0, #545454)"/>
<path fill-rule="evenodd" clip-rule="evenodd" d="M153.5 9.03653C153.917 8.80886 154.04 8.78993 154.494 8.83736C154.778 8.87531 155.119 8.96057 155.252 9.02697C155.384 9.09338 155.621 9.29268 155.791 9.47292C155.952 9.64368 156.141 9.89981 156.189 10.0421C156.246 10.1939 156.293 10.5353 156.293 10.8009C156.293 11.1424 156.227 11.4366 156.075 11.7307C155.952 11.9678 155.678 12.2809 155.45 12.4422C155.138 12.6603 154.911 12.7362 154.504 12.7552C154.182 12.7836 153.831 12.7361 153.595 12.6507C153.387 12.5654 153.055 12.3283 152.866 12.1196C152.657 11.892 152.459 11.5599 152.402 11.3228C152.345 11.1046 152.326 10.7536 152.354 10.5449C152.383 10.3362 152.544 9.96608 152.714 9.72892C152.904 9.46334 153.207 9.19778 153.5 9.03653ZM154.409 9.18825C154.002 9.16928 153.803 9.20716 153.585 9.33997C153.424 9.44432 153.207 9.62472 153.093 9.74804C152.979 9.87135 152.847 10.0894 152.79 10.2317C152.733 10.3835 152.686 10.6396 152.686 10.8009C152.686 10.9716 152.771 11.2847 152.866 11.4934C152.951 11.7021 153.169 11.9867 153.33 12.129C153.595 12.3567 153.718 12.3947 154.22 12.3947C154.598 12.3947 154.939 12.3377 155.147 12.2239C155.327 12.1385 155.573 11.8919 155.696 11.6832C155.867 11.3797 155.905 11.1899 155.886 10.7155C155.867 10.2982 155.801 10.0516 155.659 9.86187C155.545 9.71959 155.337 9.51089 155.195 9.40654C155.034 9.28322 154.759 9.20723 154.409 9.18825Z" fill="var(--fill-0, #545454)"/>
<path fill-rule="evenodd" clip-rule="evenodd" d="M154.191 9.78593C154.485 9.82388 154.797 9.91867 154.892 10.004C154.987 10.0989 155.053 10.2697 155.053 10.4025C155.053 10.5354 154.977 10.7156 154.882 10.8104C154.731 10.9717 154.731 11.0002 154.939 11.3511C155.053 11.5597 155.138 11.7589 155.129 11.7875C155.11 11.816 155.015 11.816 154.911 11.7875C154.807 11.7496 154.627 11.5788 154.513 11.3986C154.39 11.2183 154.257 11.0666 154.201 11.0666C154.153 11.0666 154.087 11.2373 154.059 11.446C154.021 11.7496 153.973 11.8256 153.822 11.8256C153.642 11.8256 153.633 11.7686 153.642 10.7726L153.661 9.71954L154.191 9.78593ZM154.324 10.1653C154.191 10.1274 154.097 10.1464 154.059 10.2317C154.021 10.2981 154.021 10.4309 154.049 10.5258C154.078 10.6111 154.182 10.687 154.276 10.687C154.362 10.6965 154.504 10.6302 154.579 10.5449C154.674 10.45 154.683 10.3647 154.627 10.3172C154.579 10.2698 154.437 10.2033 154.324 10.1653Z" fill="var(--fill-0, #545454)"/>
</g>
</g>
</svg>
