<svg preserveAspectRatio="none" width="100%" height="100%" overflow="visible" style="display: block;" viewBox="0 0 62 89" fill="none" xmlns="http://www.w3.org/2000/svg">
<g id="Group">
<path id="Vector" d="M33.397 88.277C28.0349 88.2562 22.7897 87.4629 17.6599 85.8988C8.96755 83.2562 2.61017 78.9068 0.651841 74.261C-0.703929 71.0462 -0.606172 66.1792 7.5621 61.2434C21.9483 52.5494 11.2368 27.3139 4.83774 12.2353C1.60376 4.61194 0.103764 0.914821 1.36178 0.174436C2.33934 -0.399282 3.84735 0.438859 5.97556 2.73854C7.76242 4.67123 9.95793 7.5879 12.6871 11.652C17.6615 19.0623 23.2752 28.6055 28.2272 37.0238L29.4515 39.1023C31.1871 42.0478 33.2304 43.3395 35.8826 43.168C38.2496 43.0158 40.8201 41.6937 43.3057 40.4164C46.9483 38.5462 50.7176 36.6071 53.9323 38.3331C57.7496 40.3844 60.1807 47.2289 61.5861 59.8635C62.4275 67.426 61.0845 73.6632 57.5958 78.4004C54.5413 82.5478 49.9515 85.4437 43.9547 87.0078C40.6999 87.8555 37.1198 88.277 33.397 88.277ZM2.04287 0.446872C1.88101 0.443667 1.73037 0.483731 1.58934 0.563859C1.30889 0.728923 1.15505 1.4613 2.01242 4.00937C2.70152 6.05104 3.88261 8.8363 5.2512 12.0607C11.7079 27.2738 22.514 52.7353 7.79447 61.628C1.54607 65.402 -0.780851 69.7113 1.0653 74.0863C2.97235 78.6055 9.22556 82.8603 17.7945 85.4645C22.0445 86.7482 26.3858 87.511 30.8185 87.7498C35.5268 87.995 39.9099 87.5991 43.8474 86.5735C49.7352 85.0366 54.2432 82.1969 57.2304 78.1328C60.6486 73.4901 61.9627 67.3603 61.1358 59.9132C60.397 53.2786 59.3842 48.3219 58.0365 44.7578C56.8538 41.6312 55.4387 39.6664 53.716 38.7321C50.7015 37.1167 47.2095 38.9148 43.5076 40.8187C40.9804 42.1167 38.3682 43.4613 35.9083 43.6232C35.748 43.6344 35.5909 43.6392 35.4339 43.6392C32.8506 43.6392 30.7624 42.2273 29.0605 39.3379L27.8345 37.2594C22.8874 28.8427 17.2784 19.3091 12.3089 11.9036C8.72075 6.55424 4.15825 0.446872 2.04287 0.446872Z" fill="var(--fill-0, white)"/>
</g>
</svg>
