<svg preserveAspectRatio="none" width="100%" height="100%" overflow="visible" style="display: block;" viewBox="0 0 126 48" fill="none" xmlns="http://www.w3.org/2000/svg">
<g id="injazat">
<path id="Subtract" d="M42.6534 24.1495C45.6265 24.1653 46.1571 24.1892 46.5684 24.3077C46.8294 24.3788 47.1624 24.529 47.2969 24.6397C47.4393 24.7425 47.6289 24.9726 47.7159 25.1465C47.8029 25.3206 47.9377 25.6845 48.0088 25.9532C48.1274 26.3961 48.1433 27.1328 48.167 32.421C48.1908 35.9943 48.1666 38.8013 48.1192 39.419C48.0638 40.1227 47.9764 40.6606 47.834 41.1192C47.7154 41.4909 47.4307 42.1635 47.1934 42.6221C46.9561 43.0807 46.577 43.6975 46.3555 44.0059C46.134 44.3143 45.6433 44.8599 45.2715 45.2237C44.8997 45.5874 44.3773 46.0456 44.1163 46.2354C43.8552 46.4331 43.2145 46.8056 42.6924 47.0587C42.115 47.3433 41.4346 47.604 40.9522 47.7305C40.5173 47.8412 39.8928 47.9519 39.5684 47.9756C39.0068 48.0231 38.9665 48.0149 38.8321 47.8331C38.7135 47.667 38.6983 47.4202 38.6983 43.3731L39.3067 43.2227C39.6468 43.1436 40.1537 42.9703 40.4385 42.8438C40.7232 42.7173 41.1658 42.4563 41.4268 42.2745C41.6878 42.0847 42.0677 41.7441 42.2813 41.5069C42.4869 41.2697 42.7793 40.8348 42.9375 40.5264C43.1828 40.0441 43.2308 39.8622 43.2862 39.1426C43.3257 38.6839 43.3574 36.8015 43.3653 34.9512C43.3653 33.101 43.341 30.9979 43.2461 28.9659L41.0313 28.918C39.8132 28.8943 38.8087 28.8626 38.8008 28.8467C38.7928 28.8249 38.761 27.8945 38.7373 26.7676C38.7057 25.4233 38.7142 24.6318 38.7696 24.4737C38.8172 24.3473 38.9355 24.2133 39.0303 24.1817C39.134 24.1501 40.7634 24.1337 42.6534 24.1495ZM116.615 23.0508C116.681 23.0672 117.304 23.2326 117.999 23.4141C118.695 23.5881 119.478 23.7942 119.739 23.8575C120.103 23.9524 120.855 23.9838 125.633 24.0391V29.0206L121.29 28.9024L121.211 29.1163C121.156 29.26 121.124 30.4084 121.124 35.3467L121.535 35.9483C121.765 36.2804 122.207 36.7946 122.508 37.0792C122.864 37.4191 123.283 37.7193 123.694 37.9249C124.161 38.1621 124.502 38.2726 125.633 38.4307V43.334L125.332 43.2862C125.174 43.2625 124.683 43.1759 124.248 43.0889C123.813 43.0098 123.157 42.8355 122.785 42.709C122.413 42.5904 121.828 42.345 121.48 42.1631C121.131 41.9891 120.586 41.6648 120.27 41.4434C119.961 41.2221 119.447 40.8034 119.139 40.503C118.822 40.2105 118.339 39.6571 118.063 39.2618C117.786 38.8664 117.311 38.051 116.457 36.335L116.37 29.7325C116.299 24.2606 116.307 23.1217 116.394 23.0743C116.449 23.0427 116.552 23.0271 116.615 23.0508ZM60.9258 23.7706C61.3846 23.7943 62.1128 23.8809 62.5479 23.9678C62.9829 24.0627 63.6786 24.2532 64.0899 24.4034C64.5012 24.5536 65.1419 24.8538 65.5137 25.0831C65.8854 25.3044 66.3837 25.6364 66.6211 25.8262C66.8584 26.0081 67.3096 26.419 67.626 26.7432C67.9345 27.0595 68.378 27.5899 68.6153 27.9141C68.8447 28.2384 69.2239 28.8785 69.4454 29.337C69.6747 29.7955 69.9438 30.4914 70.0625 30.879C70.1733 31.2664 70.3002 31.9623 70.3477 32.421C70.4031 32.9508 70.4261 35.0465 70.4024 38.2491C70.3945 40.993 70.3626 43.2626 70.3389 43.2784C70.3102 43.3007 69.5453 43.127 68.6387 42.8985C67.7211 42.6692 66.6765 42.416 66.3047 42.3448C65.6486 42.2184 65.6247 42.2188 65.1582 42.3926C64.8972 42.4796 64.343 42.6771 63.9317 42.8194C63.5203 42.9617 62.8084 43.1437 62.3496 43.2149C61.7249 43.3177 61.2504 43.3412 60.4121 43.3174C59.6846 43.2858 59.0357 43.2153 58.5137 43.0967C58.0788 43.0019 57.5092 42.8352 57.2481 42.7403C56.9871 42.6375 56.5041 42.4325 56.1797 42.2823C55.8556 42.1321 55.3022 41.8 54.9541 41.5391C54.6061 41.2782 54.0682 40.8028 53.7676 40.4786C53.4591 40.1544 53.031 39.6569 52.8174 39.3643C52.596 39.0718 52.2882 38.6048 52.1221 38.336C51.956 38.0593 51.7184 37.5694 51.5918 37.2452C51.4732 36.921 51.299 36.3829 51.212 36.0587C51.125 35.7345 51.0065 35.0944 50.959 34.6358C50.8958 34.1536 50.8797 33.4733 50.9034 33.0147C50.935 32.58 51.0061 31.9553 51.0694 31.6309C51.1247 31.3067 51.2913 30.7051 51.4258 30.3018C51.5602 29.9066 51.7739 29.3694 51.9004 29.1163C52.027 28.8712 52.3195 28.3965 52.5489 28.0723C52.7783 27.7481 53.3246 27.1236 53.7676 26.6807C54.2027 26.2458 54.7875 25.7155 55.0723 25.502C55.3571 25.2885 55.8717 24.9642 56.2198 24.7823C56.5678 24.6005 57.1211 24.3638 57.4454 24.2452C57.7697 24.1345 58.395 23.992 58.8301 23.9288C59.2651 23.8576 59.724 23.7864 59.8584 23.7706C59.9854 23.7548 60.4674 23.7548 60.9258 23.7706ZM104.71 23.8018C105.185 23.8493 105.794 23.9446 106.055 24.0079C106.316 24.0712 106.783 24.2214 107.083 24.3321C107.383 24.4428 107.866 24.6555 108.15 24.8057C108.435 24.9639 108.981 25.3277 109.377 25.6124C109.764 25.9048 110.278 26.3399 110.516 26.5772C110.753 26.8144 111.228 27.3447 111.568 27.7559C111.916 28.1749 112.343 28.8072 112.533 29.1788C112.723 29.5504 112.952 30.0806 113.039 30.3653C113.134 30.65 113.261 31.1089 113.324 31.3936C113.388 31.6784 113.474 32.279 113.522 32.7374C113.577 33.2355 113.609 35.2835 113.601 37.877C113.593 40.249 113.569 42.4396 113.49 43.3096L111.592 42.8516C110.548 42.5986 109.464 42.3686 109.179 42.337C108.712 42.2896 108.57 42.3139 107.637 42.6221C107.067 42.804 106.268 43.0253 105.856 43.1202C105.263 43.2466 104.828 43.2862 103.761 43.2862C102.812 43.2862 102.234 43.2551 101.783 43.1602C101.435 43.089 100.881 42.9301 100.557 42.8194C100.232 42.7008 99.6395 42.4399 99.252 42.2422C98.8565 42.0367 98.2707 41.6729 97.9463 41.4278C97.6221 41.1906 97.037 40.6533 96.6495 40.2422C96.2618 39.8311 95.7866 39.2615 95.5967 38.961C95.4069 38.6685 95.154 38.2258 95.0274 37.9727C94.9087 37.7276 94.7114 37.2367 94.6006 36.8887C94.482 36.5408 94.331 36.0269 94.2598 35.7422C94.1807 35.41 94.1254 34.7064 94.0938 33.7657C94.0622 32.4691 94.0783 32.2078 94.2286 31.4727C94.3235 31.0141 94.5215 30.3414 94.6797 29.9698C94.83 29.5981 95.1224 29.013 95.336 28.6651C95.5416 28.3173 95.8658 27.835 96.0557 27.5977C96.2456 27.3605 96.6495 26.9177 96.958 26.6172C97.2586 26.309 97.7802 25.8663 98.1045 25.6212C98.4288 25.384 98.8955 25.0671 99.1329 24.9327C99.3702 24.7982 99.8848 24.5614 100.28 24.4112C100.668 24.261 101.261 24.0791 101.585 24.0079C101.909 23.9367 102.495 23.8492 102.891 23.8096C103.278 23.7702 103.657 23.7385 103.721 23.7305C103.784 23.7305 104.227 23.7623 104.71 23.8018ZM8.67777 24.126C10.4101 24.1181 11.9689 24.1577 12.3565 24.2051C12.728 24.2526 13.2023 24.3632 13.4161 24.4581C13.6296 24.553 13.8989 24.759 14.0254 24.9092C14.144 25.0595 14.3183 25.4543 14.4053 25.7784C14.5081 26.1421 14.603 26.8382 14.6504 27.5577C14.7058 28.3484 14.7142 31.1799 14.6114 43.2628L12.42 43.2383C10.6006 43.2146 10.2044 43.1916 10.1016 43.0967C10.0146 43.0097 9.95959 42.6931 9.91215 41.9503C9.86469 41.3888 9.80893 38.225 9.70609 28.9415H8.3223C7.56295 28.9415 6.53453 28.9182 5.15824 28.8233L5.1973 24.2364L5.43461 24.1895C5.56117 24.1579 7.02465 24.1339 8.67777 24.126ZM27.4258 24.0001C28.5092 24.0238 28.9916 24.071 29.4424 24.1895C29.7667 24.2686 30.2814 24.4342 30.5899 24.5528C30.8904 24.6714 31.3725 24.8937 31.6573 25.0518C31.942 25.2099 32.3855 25.4939 32.6465 25.6837C32.9076 25.8734 33.3981 26.3008 33.7461 26.6329C34.0863 26.965 34.5769 27.5108 34.8379 27.835C35.091 28.1592 35.4625 28.7281 35.6524 29.0997C35.8422 29.4712 36.1028 30.096 36.2373 30.4835C36.3639 30.8709 36.5142 31.5198 36.5538 31.9073C36.6091 32.3264 36.6416 34.7859 36.6416 43.2549H32.0528L32.0137 40.3448C31.99 38.7475 31.9341 36.3751 31.8946 35.0704C31.8471 33.7657 31.776 32.4531 31.7286 32.1446C31.6811 31.7651 31.5705 31.4488 31.3965 31.1563C31.2541 30.9191 30.9137 30.4918 30.6289 30.2071C30.3204 29.8987 29.8458 29.5428 29.4424 29.3135C29.0707 29.108 28.5174 28.8625 28.2168 28.7676C27.7659 28.6332 27.5519 28.6099 27.0694 28.6495C26.7451 28.6811 26.2783 28.76 26.0411 28.8311C25.8037 28.9023 25.3533 29.0842 25.0528 29.2422C24.6574 29.4399 24.317 29.7008 23.8663 30.1592C23.5183 30.515 23.1383 30.9818 23.0196 31.1954C22.9009 31.4168 22.7509 31.8362 22.6797 32.1446C22.6085 32.5005 22.5289 33.5206 22.4815 34.9913C22.434 36.2486 22.3705 38.5893 22.3389 40.1866C22.3073 41.7721 22.2524 43.1057 22.2207 43.1514C22.1812 43.1831 21.1922 43.2149 20.0293 43.2149C18.3847 43.2149 17.8783 43.1914 17.7989 43.1124C17.7198 43.0333 17.6961 42.0764 17.712 38.3282C17.712 35.7503 17.7592 33.1008 17.8067 32.4366C17.87 31.5354 17.9415 31.0847 18.0996 30.6182C18.2104 30.2862 18.4393 29.7249 18.6133 29.377C18.7953 29.0291 19.104 28.4989 19.3018 28.1905C19.5075 27.89 19.9903 27.3047 20.3858 26.8936C20.7733 26.4826 21.3661 25.9454 21.6905 25.7081C22.0148 25.4629 22.6402 25.0829 23.0752 24.8536C23.5103 24.6322 24.1115 24.3712 24.42 24.2842C24.7205 24.1894 25.2026 24.0787 25.4873 24.0391C25.7721 23.9996 26.6427 23.9842 27.4258 24.0001ZM88.0977 24.1661L88.7305 24.5137C89.1102 24.7351 89.5538 25.0675 89.8623 25.3839C90.1627 25.6921 90.463 26.1029 90.6133 26.4112C90.8506 26.8935 90.8669 26.9729 90.8907 27.9532C90.9065 28.7439 90.8821 29.0686 90.7871 29.377C90.7159 29.5984 90.5263 29.9063 90.3682 30.0723C90.21 30.2384 89.7356 30.6735 89.3243 31.0294C88.9129 31.3931 87.062 32.8722 85.211 34.3272C83.36 35.7822 81.485 37.269 81.042 37.6407C80.5992 38.0123 80.2508 38.3366 80.2666 38.3682C80.2998 38.4076 83.0523 38.4307 92.4493 38.4307L92.3858 40.2256C92.3541 41.222 92.3301 42.306 92.3301 43.2549L84.4756 43.2305C77.2547 43.2147 76.573 43.1989 75.9561 43.0645C75.5844 42.9855 75.1409 42.8517 74.9668 42.7647C74.7928 42.6698 74.4213 42.4005 74.1524 42.1553C73.7727 41.8233 73.5747 41.5704 73.377 41.1592C73.2268 40.851 73.069 40.4083 73.0293 40.171C72.9819 39.9338 72.9503 39.4911 72.9502 39.1827C72.9502 38.8427 73.0134 38.4153 73.1163 38.0753C73.2665 37.5851 73.3451 37.4583 73.8116 37.0157C74.0963 36.7389 75.0064 35.9719 75.837 35.3077C76.6595 34.6435 78.0834 33.5445 79.001 32.8565C79.9107 32.1685 81.2712 31.132 82.0069 30.5547C82.7423 29.9856 83.4384 29.4247 83.7471 29.1163L83.3916 29.0684C83.1939 29.0368 81.0023 28.981 78.5264 28.9415C76.0426 28.9019 74.0099 28.8546 74.002 28.8467C73.994 28.8258 73.9622 27.8951 73.9385 26.7676C73.9069 25.6369 73.9225 24.6002 73.9541 24.4737C74.0174 24.2684 74.0735 24.2291 74.3819 24.1817C74.5749 24.158 77.7412 24.1424 88.0977 24.1661ZM60.5303 28.5547C60.2062 28.5627 59.7952 28.5944 59.6211 28.626C59.4471 28.6656 59.1065 28.7597 58.8692 28.8546C58.6319 28.9415 58.2047 29.187 57.92 29.4005C57.6352 29.614 57.2159 29.994 56.9786 30.2549C56.7492 30.508 56.4247 30.9509 56.2745 31.2354C56.1163 31.52 55.919 31.9782 55.8399 32.2628C55.745 32.587 55.6896 33.046 55.6817 33.5284C55.6738 34.1054 55.7132 34.4137 55.8555 34.8721C55.9583 35.1963 56.1402 35.6632 56.2588 35.9005C56.3854 36.1377 56.67 36.5574 56.9073 36.8262C57.1367 37.103 57.5091 37.4503 57.7227 37.6085C57.9442 37.7666 58.3318 37.9957 58.5928 38.1143C58.8538 38.2408 59.3436 38.3918 59.6836 38.463C60.0159 38.5341 60.4278 38.5889 60.586 38.5889C60.7522 38.581 61.1716 38.534 61.5196 38.4708C61.9229 38.3996 62.3818 38.2417 62.7852 38.044C63.1333 37.87 63.6556 37.5217 63.9483 37.2686C64.2409 37.0156 64.6124 36.6276 64.7705 36.4141C64.9287 36.1927 65.1578 35.8058 65.2764 35.545C65.395 35.2842 65.5373 34.8731 65.6006 34.6358C65.656 34.3986 65.6963 33.9 65.6963 33.5284C65.6884 33.0303 65.6328 32.6901 65.4746 32.2237C65.364 31.876 65.1743 31.4333 65.0635 31.2354C64.9449 31.0378 64.7074 30.6816 64.5254 30.4444C64.3357 30.2073 64.0193 29.8597 63.8057 29.6856C63.5921 29.5037 63.1486 29.2266 62.8243 29.0684C62.5 28.9103 61.9862 28.7284 61.6778 28.6651C61.3693 28.6018 60.8546 28.5547 60.5303 28.5547ZM103.998 28.5782C103.418 28.5571 102.982 28.5835 102.692 28.6573C102.455 28.7205 102.076 28.8466 101.862 28.9415C101.641 29.0364 101.253 29.2664 100.992 29.4483C100.731 29.6381 100.351 29.9777 100.146 30.2149C99.9479 30.452 99.6475 30.8553 99.4893 31.1163C99.339 31.3772 99.1175 31.8681 99.0147 32.2003C98.8566 32.6824 98.8164 32.9831 98.8164 33.5919C98.8165 34.0109 98.8559 34.5173 98.9034 34.7149C98.9431 34.9128 99.1249 35.3709 99.3067 35.7422C99.5677 36.28 99.7662 36.5487 100.273 37.0547C100.747 37.5213 101.071 37.767 101.506 37.9805C101.83 38.1465 102.297 38.3283 102.534 38.3917C102.779 38.4549 103.325 38.5098 103.8 38.5098C104.401 38.5098 104.797 38.4624 105.224 38.3438C105.556 38.2568 106.063 38.0355 106.371 37.8458C106.68 37.656 107.17 37.2373 107.479 36.9131C107.795 36.5731 108.143 36.1061 108.285 35.8135C108.435 35.5051 108.586 35.0307 108.657 34.5958C108.728 34.2083 108.783 33.6548 108.783 33.3702C108.783 33.0855 108.712 32.5716 108.625 32.2237C108.53 31.8758 108.348 31.4014 108.206 31.1641C108.064 30.927 107.668 30.4447 107.32 30.0889C106.972 29.7332 106.506 29.3376 106.292 29.211C106.071 29.0845 105.667 28.9027 105.382 28.7999C104.986 28.6497 104.662 28.6019 103.998 28.5782ZM0.570352 8.70612C0.634809 8.7074 1.06167 9.07072 1.51176 9.51276C1.96283 9.95577 3.51255 11.514 4.96 12.9688C6.39968 14.4238 8.18811 16.2582 8.93168 17.0411C9.67474 17.8234 10.4413 18.6531 10.6475 18.8751C10.8453 19.1044 11.0118 19.3266 11.0118 19.3741C11.0117 19.4139 10.9954 19.5083 10.9717 19.5714C10.9479 19.6345 10.8614 19.6895 10.7745 19.6895C10.6875 19.6895 10.4816 19.6192 10.3155 19.5401C10.1573 19.4531 9.5482 18.9546 8.97074 18.4327C8.22779 17.7532 7.87971 17.4838 7.76078 17.4913C7.66595 17.5071 7.5158 17.6024 7.42875 17.713C7.28642 17.9027 7.28582 17.9266 7.40434 18.3057C7.50717 18.6299 7.50785 18.7413 7.42875 18.8995C7.35758 19.0418 7.25429 19.1043 7.05668 19.1202C6.79564 19.1439 6.71667 19.0807 5.46684 17.8155C4.74701 17.088 4.05815 16.3449 3.93949 16.171C3.81308 15.9813 3.73432 15.7759 3.75004 15.6573C3.76586 15.507 3.82123 15.4514 3.98734 15.4356C4.11385 15.4277 4.34285 15.4913 4.50102 15.5782C4.66713 15.6573 5.00003 15.9104 5.23734 16.1397C5.47464 16.3611 5.81435 16.646 5.98832 16.7725C6.16234 16.899 6.36059 17.0089 6.42387 17.0089C6.48722 17.0087 6.61331 16.9297 6.70023 16.8428C6.83465 16.7006 6.8429 16.6534 6.7559 16.4874C6.70839 16.3766 6.43986 16.0282 6.17094 15.712C5.89394 15.4034 4.56451 14.0203 3.21195 12.6524C1.85139 11.2844 0.577709 9.96388 0.379922 9.72662C0.174253 9.4894 0.00794965 9.21986 3.92997e-05 9.13287C-0.00757616 9.03027 0.0718143 8.91982 0.221719 8.84088C0.348285 8.76181 0.507069 8.70612 0.570352 8.70612ZM0.593789 5.93073C0.649411 5.93888 1.20335 6.42076 1.83598 7.02155C2.46089 7.61462 5.41159 10.525 8.37797 13.4825C11.3522 16.4398 13.7881 18.9153 13.7881 18.9786C13.7799 19.042 13.6769 19.2081 13.3135 19.5714L13.0127 19.3419C12.8445 19.2131 10.4884 16.881 7.76859 14.1622C5.04779 11.4344 2.24753 8.5964 1.5352 7.84479C0.8313 7.0937 0.254246 6.41332 0.246133 6.33405C0.246134 6.24717 0.301049 6.12102 0.37211 6.05768C0.443303 5.98651 0.546327 5.93073 0.593789 5.93073ZM5.32426 7.59088C5.41232 7.59196 6.67803 8.76202 8.37797 10.4297C9.98377 11.9955 11.8664 13.8538 12.5625 14.5655C13.2666 15.2693 14.2238 16.2656 14.6905 16.7637C15.1572 17.2619 15.6318 17.8238 15.9561 18.3536L15.7579 18.5596C15.6077 18.7097 15.5126 18.7408 15.3623 18.7012C15.2504 18.6684 13.1859 16.6685 10.5684 14.044C8.03728 11.5217 5.73531 9.16558 5.44242 8.81744C5.14986 8.46966 4.91342 8.11352 4.90531 8.03424C4.8974 7.94726 4.96 7.81254 5.0391 7.73346C5.11821 7.65438 5.24515 7.59088 5.32426 7.59088ZM6.74809 0.158264C6.82738 0.158478 7.19109 0.435556 7.54691 0.775452C7.91118 1.10796 9.48487 2.64197 11.0508 4.18365C12.617 5.72559 14.3814 7.4252 14.9668 7.96295C15.552 8.50841 16.1291 8.99906 16.2559 9.06256C16.4062 9.14163 16.5172 9.14914 16.628 9.09381C16.715 9.04637 16.7862 8.94349 16.7862 8.85651C16.7861 8.76946 16.636 8.50852 16.4541 8.28717C16.2643 8.05787 15.4813 7.21183 14.6983 6.40533C13.9152 5.59881 12.8474 4.4756 12.3252 3.91412C11.7954 3.34497 11.2337 2.71272 11.0752 2.5069C10.83 2.20641 10.7903 2.10315 10.8536 1.97662C10.9011 1.88977 10.9962 1.81842 11.0752 1.81842C11.1467 1.81866 11.368 1.91374 11.5655 2.0401C11.7632 2.16662 12.3644 2.6727 12.9102 3.17877C13.456 3.68486 14.722 4.92627 15.7266 5.94635C16.7312 6.95852 18.0761 8.34258 18.7168 9.01471C19.3575 9.68677 19.8711 10.3038 19.8711 10.3829C19.8711 10.454 19.8394 10.5879 19.792 10.6749C19.7525 10.7618 19.6494 10.8331 19.5782 10.8331C19.4988 10.8328 19.3092 10.7539 19.1592 10.6671C19.0088 10.572 18.6691 10.3034 18.4082 10.0743C18.1472 9.84496 17.8778 9.64752 17.8145 9.64752C17.7512 9.64759 17.6165 9.7265 17.5137 9.82135C17.3636 9.9636 17.3395 10.059 17.3711 10.2803C17.3949 10.4305 17.4431 10.6829 17.4668 10.8331C17.5064 11.0308 17.4903 11.1342 17.4112 11.1895C17.3477 11.229 17.0235 11.284 16.6914 11.3077C16.3044 11.3314 16.0356 11.3948 15.9561 11.4659C15.8454 11.5687 15.8367 11.6164 15.9395 11.8614C16.0028 12.0116 16.3828 12.4861 16.7784 12.9131C17.1739 13.3322 17.5144 13.7673 17.5381 13.878C17.5618 13.9887 17.5299 14.1312 17.4825 14.1944C17.4033 14.2892 17.2209 14.3205 16.7305 14.3126C16.2641 14.3126 16.0509 14.3448 15.9639 14.4317C15.8927 14.495 15.837 14.5738 15.837 14.6133C15.837 14.6451 15.9244 14.8115 16.043 14.9854C16.1619 15.1596 16.4938 15.5707 16.7862 15.8946C17.0786 16.2185 17.3787 16.6055 17.4502 16.7481C17.5214 16.8824 17.5617 17.0644 17.5381 17.1436C17.5223 17.2148 17.4029 17.3015 17.2842 17.3253C17.0866 17.3646 16.9597 17.2701 16.0743 16.4561C15.5285 15.95 13.8277 14.313 12.2852 12.8106C10.7427 11.3082 8.26639 8.83277 6.78715 7.31451C5.30055 5.78891 3.71144 4.12886 3.24418 3.61432C2.54016 2.85519 2.38939 2.64864 2.41313 2.47467C2.42112 2.32479 2.47641 2.24539 2.58695 2.22955C2.68977 2.21374 2.97466 2.38016 3.37797 2.69635C3.72598 2.96518 4.72274 3.89036 5.59281 4.73639C6.46292 5.59038 8.61497 7.70955 10.3789 9.45709C12.1423 11.1961 13.8582 12.8406 14.1993 13.1104C14.5315 13.3793 14.9037 13.6248 15.0303 13.6485C15.1487 13.6721 15.267 13.6644 15.2989 13.6251C15.3226 13.5934 15.3699 13.4269 15.3936 13.2608C15.4331 13.0159 15.4102 12.9365 15.2442 12.7706C15.1335 12.6599 14.9911 12.4704 14.9278 12.336C14.8645 12.2016 14.8087 11.909 14.8086 11.6797C14.8086 11.3398 14.8641 11.1736 15.4414 10.2012L15.2276 9.90045C15.1083 9.74173 13.6058 8.19999 11.8897 6.48444C10.1654 4.76074 8.48093 3.13145 8.14848 2.86237C7.80877 2.59385 7.45293 2.3727 7.35746 2.37213C7.25463 2.36422 7.12758 2.4201 7.08012 2.49127C7.02494 2.55456 6.99309 2.68851 7.01664 2.78326C7.04037 2.88606 7.27786 3.23444 7.55473 3.55865C7.83161 3.88289 8.58307 4.69728 9.21586 5.35358C9.85649 6.0177 10.5049 6.75312 10.6553 6.97467C10.8056 7.20399 10.9327 7.45721 10.9327 7.52838C10.9325 7.62311 10.8531 7.68624 10.7188 7.71783C10.5844 7.7415 10.4338 7.71768 10.3389 7.64655C10.2511 7.58261 9.82421 7.21899 9.38969 6.8399C8.95443 6.45223 7.91822 5.46395 7.09574 4.63385C6.2652 3.80359 5.30793 2.79961 4.96781 2.41217C4.6277 2.01683 4.30341 1.62137 4.2559 1.52643C4.18475 1.38417 4.19311 1.32085 4.31156 1.18658C4.39857 1.0917 4.54888 1.0284 4.70707 1.02838C4.90483 1.03629 5.03167 1.1154 5.31645 1.4317C5.61682 1.76355 5.71202 1.82633 5.94926 1.81842C6.09938 1.81836 6.28901 1.75576 6.3682 1.67682C6.44731 1.60565 6.51078 1.47083 6.51078 1.38385C6.51076 1.29684 6.43175 1.06718 6.18656 0.513733L6.39164 0.332092C6.50239 0.237201 6.66107 0.158264 6.74809 0.158264ZM2.44438 13.6797C2.63422 13.6797 2.793 13.7592 3.03031 13.9727C3.20432 14.1388 3.37836 14.392 3.42582 14.5264C3.46534 14.6687 3.48079 14.8584 3.45707 14.9454C3.43334 15.0403 3.3308 15.1198 3.19633 15.1514C3.04603 15.1831 2.90317 15.1435 2.68168 14.9932C2.52356 14.8826 2.31856 14.6687 2.23148 14.5264C2.14452 14.3921 2.06466 14.1628 2.05668 14.0284C2.04877 13.894 2.07283 13.7592 2.11234 13.7354C2.15186 13.7038 2.29422 13.6798 2.44438 13.6797ZM0.704141 11.9405C0.759445 11.9405 0.90198 11.9877 1.02055 12.0508C1.14705 12.1141 1.35278 12.2805 1.49516 12.4307C1.63745 12.573 1.77199 12.7943 1.80375 12.9288C1.83537 13.0947 1.80386 13.2212 1.70121 13.3555C1.59047 13.5058 1.51098 13.5298 1.33695 13.4903C1.21821 13.4664 0.996949 13.3239 0.838906 13.1817C0.680744 13.0473 0.498749 12.8336 0.443399 12.7071C0.380203 12.5885 0.324347 12.4065 0.316446 12.296C0.308707 12.1776 0.364307 12.0748 0.459024 12.0274C0.537938 11.9801 0.656453 11.9407 0.704141 11.9405ZM17.8858 11.6719C18.0598 11.6008 18.2181 11.5845 18.3526 11.6319C18.4712 11.6636 18.7166 11.862 18.8985 12.0596C19.1751 12.3441 19.2386 12.4625 19.2149 12.668C19.207 12.8578 19.1513 12.9292 19.001 12.9766C18.8666 13.0161 18.6923 12.9839 18.4551 12.8653C18.2653 12.7703 18.0045 12.573 17.878 12.4307C17.7595 12.2965 17.6488 12.0913 17.6407 11.9805C17.6328 11.8224 17.6881 11.751 17.8858 11.6719ZM18.1944 5.77252C18.2657 5.77262 18.5034 5.88318 18.7168 6.02545C18.938 6.16766 19.1746 6.38908 19.2539 6.5235C19.333 6.65002 19.3888 6.84834 19.3809 6.95905C19.365 7.0697 19.2701 7.20434 19.1436 7.27545C18.946 7.38605 18.9063 7.37755 18.6377 7.23541C18.4796 7.14845 18.2497 6.9194 18.1231 6.72174C17.9967 6.52434 17.8861 6.30307 17.8858 6.22369C17.8858 6.14463 17.9174 6.0099 17.9649 5.92291C18.0203 5.84384 18.1153 5.77252 18.1944 5.77252ZM3.59184 5.93854C3.63152 5.93075 3.78147 5.99441 3.93949 6.06549C4.0977 6.14457 4.29594 6.32657 4.37504 6.461C4.46975 6.61903 4.51673 6.83996 4.50102 7.01373C4.4852 7.2983 4.46979 7.31424 4.20902 7.33795C3.97177 7.35376 3.87681 7.30648 3.56059 6.98248C3.31544 6.73742 3.18859 6.53187 3.18852 6.40533C3.18061 6.29463 3.21254 6.16762 3.24418 6.12018C3.27603 6.07279 3.35493 6.01003 3.41801 5.98639C3.48127 5.96268 3.56022 5.93854 3.59184 5.93854ZM13.2979 0.854553C13.3693 0.87849 13.5828 1.00455 13.7803 1.13092C13.9781 1.26543 14.7929 2.03241 15.5996 2.83893C16.4065 3.6455 17.1819 4.48373 17.3243 4.70514C17.4664 4.91837 17.5769 5.1947 17.5772 5.31354C17.5772 5.45587 17.5218 5.56687 17.419 5.61432C17.2924 5.67757 17.1819 5.63796 16.8496 5.37701C16.6202 5.20304 16.0746 4.72852 15.6475 4.32526C15.2124 3.92988 14.5238 3.22628 14.1045 2.76764C13.6933 2.30914 13.2586 1.79524 13.1319 1.62115C13.0054 1.44724 12.9025 1.22586 12.8946 1.13092C12.8867 1.03617 12.9495 0.925491 13.0205 0.885803C13.0997 0.838358 13.2188 0.83083 13.2979 0.854553ZM9.48539 6.10352e-05C9.61982 0.000271471 9.8251 0.102999 10.0147 0.252991C10.1808 0.395313 10.3713 0.624508 10.4346 0.751038C10.4978 0.877359 10.5294 1.06707 10.5059 1.16998C10.4822 1.26477 10.3791 1.36779 10.2842 1.39166C10.1814 1.41538 9.97553 1.38372 9.82523 1.31256C9.67494 1.2493 9.4768 1.09133 9.38188 0.972717C9.28698 0.854106 9.19183 0.679789 9.1602 0.592834C9.12877 0.505804 9.14511 0.340218 9.19242 0.213928C9.24779 0.0557762 9.31927 6.10352e-05 9.48539 6.10352e-05Z" fill="var(--fill-0, #545454)"/>
</g>
</svg>
