<svg preserveAspectRatio="none" width="100%" height="100%" overflow="visible" style="display: block;" viewBox="0 0 48 48" fill="none" xmlns="http://www.w3.org/2000/svg">
<g id="keyspace">
<path id="Vector" d="M19.7222 0.24514C20.2038 0.158155 20.7328 0.0711697 20.9065 0.0553542C21.0802 0.0395387 21.5302 0.0237232 22.604 0L22.6435 0.260956C22.6593 0.395387 22.7066 5.314 22.7382 11.1736C22.7777 17.0412 22.8172 21.857 22.8408 21.8728C22.8645 21.8886 23.3382 21.343 23.9067 20.655C24.4673 19.975 25.5252 18.6939 27.578 16.2109H28.8965C29.6307 16.2109 30.7676 16.2346 31.4308 16.2662C32.1414 16.3058 32.6309 16.3611 32.6309 16.4086C32.6309 16.456 32.2835 16.9147 31.8572 17.4287C31.4387 17.9506 30.3176 19.287 29.3623 20.3941C28.4149 21.5091 27.5859 22.4975 27.5306 22.6003C27.428 22.7585 27.4438 22.8138 27.6253 23.1143C27.7438 23.2962 28.3043 24.087 28.8728 24.8699C29.4412 25.6527 30.5939 27.2185 31.4308 28.3493C32.2756 29.4801 32.9941 30.4606 33.0257 30.5239C33.0809 30.6188 32.9862 30.6504 32.4888 30.7058C32.1493 30.7374 30.9413 30.7611 27.6964 30.769L25.2884 27.4003C23.962 25.5499 22.8566 24.0316 22.8251 24.0395C22.7856 24.0395 22.7382 25.5341 22.6435 30.682H21.2618C20.5039 30.682 19.4775 30.7058 18.1037 30.8007V21.0741C18.1037 15.7206 18.08 10.0903 17.9853 5.76474L17.7484 5.8201C17.6142 5.84382 17.2116 5.99407 16.8405 6.14432C16.4694 6.29456 15.7825 6.61087 15.3009 6.8402C14.8193 7.07743 14.0061 7.55189 13.485 7.89193C12.9639 8.23987 12.0797 8.92784 11.5112 9.42603C10.9428 9.92422 10.2006 10.6438 9.85322 11.0234C9.50583 11.403 8.94527 12.0988 8.60578 12.5654C8.26629 13.0241 7.78468 13.7595 7.53203 14.1944C7.27938 14.6293 6.9241 15.2699 6.75041 15.6178C6.57671 15.9657 6.27669 16.6616 6.07931 17.1598C5.88193 17.658 5.65297 18.2985 5.56612 18.5832C5.47928 18.8679 5.31348 19.54 5.19505 20.0857C5.04504 20.8053 4.96609 21.4774 4.91082 22.5371C4.86345 23.4623 4.86345 24.5298 4.91082 25.4234C4.95819 26.2537 5.06083 27.1947 5.15557 27.6771C5.25032 28.1357 5.4477 28.8949 5.6056 29.3773C5.75561 29.8596 6.05563 30.682 6.2688 31.2198C6.48197 31.7496 6.82146 32.5166 7.01884 32.912C7.22412 33.3153 7.62677 34.0033 7.9189 34.4382C8.21102 34.8731 8.62947 35.4583 8.85843 35.743C9.08739 36.0277 9.61637 36.6287 10.0348 37.0794C10.4533 37.5381 11.1875 38.2339 11.6691 38.6293C12.1507 39.0247 12.7902 39.5308 13.0903 39.7443C13.3903 39.9657 13.9114 40.3137 14.2351 40.5114C14.5588 40.7091 15.3957 41.144 16.0904 41.4682C16.8642 41.832 17.7405 42.172 18.3406 42.346C18.8853 42.4962 19.7143 42.7097 20.1959 42.8204C20.7881 42.9549 21.5302 43.0418 22.525 43.1051C23.5909 43.1684 24.3883 43.1684 25.4857 43.0972C26.3463 43.0498 27.2858 42.947 27.6964 42.86C28.0833 42.773 28.7307 42.6069 29.1175 42.4962C29.5044 42.3776 30.3255 42.0929 30.9334 41.8557C31.5414 41.6105 32.3625 41.2547 32.7493 41.0649C33.1362 40.8672 33.7047 40.5588 34.0126 40.3848C34.3205 40.203 34.9916 39.7364 35.5127 39.3489C36.0337 38.9535 36.9417 38.1549 37.5259 37.5618C38.1181 36.9766 38.8286 36.1937 39.1129 35.8221C39.405 35.4504 39.855 34.8099 40.1314 34.3987C40.3998 33.9875 40.8972 33.0781 41.2367 32.3822C41.5762 31.6863 41.9867 30.7611 42.1446 30.3262C42.3104 29.8913 42.5631 29.053 42.7052 28.4679C42.8473 27.8827 43.0052 27.0287 43.0526 26.57C43.0921 26.1114 43.1315 24.941 43.1315 23.9605C43.1315 22.9799 43.0921 21.8096 43.0526 21.3509C43.0052 20.8923 42.8473 20.054 42.7052 19.4926C42.5552 18.9311 42.2552 17.9664 42.0262 17.3575C41.7972 16.7486 41.442 15.9104 41.2367 15.4992C41.0314 15.088 40.6761 14.4237 40.4393 14.0362C40.2103 13.6488 39.7366 12.945 39.3813 12.4784C39.0339 12.0198 38.426 11.2923 38.0391 10.8652C37.6523 10.4382 36.9022 9.73443 36.3732 9.29951C35.8522 8.85667 35.1732 8.33476 34.8731 8.13707C34.5731 7.93147 33.8862 7.51236 33.3415 7.20395C32.7967 6.89555 32.0625 6.50807 31.0677 6.04942L31.0203 5.65404C30.9966 5.44053 30.9729 4.27018 30.9729 0.869852L31.2335 0.948929C31.3677 0.988468 31.873 1.17035 32.3546 1.34432C32.8362 1.51829 33.8626 1.98484 34.6442 2.37232C35.4258 2.75189 36.389 3.27381 36.7759 3.52685C37.1628 3.7799 37.8733 4.27809 38.3549 4.63394C38.8365 4.98979 39.5629 5.57496 39.9735 5.94662C40.384 6.31829 40.9919 6.89555 41.3156 7.24349C41.6393 7.58353 42.1209 8.12125 42.3815 8.42175C42.642 8.72224 43.0763 9.25997 43.3368 9.60791C43.6053 9.95585 44.0948 10.6834 44.4342 11.229C44.7737 11.7746 45.1922 12.4705 45.3501 12.771C45.5159 13.0715 45.8317 13.7516 46.0607 14.2735C46.2817 14.7954 46.6765 15.8471 46.9212 16.6063C47.1739 17.3654 47.4739 18.4567 47.5844 19.0181C47.695 19.5796 47.8292 20.3703 47.8845 20.7578C47.9476 21.2086 47.9871 22.4026 47.9871 24C47.9871 26.0402 47.9555 26.7124 47.845 27.4794C47.766 28.0013 47.6239 28.7526 47.5371 29.14C47.4502 29.5275 47.2607 30.2629 47.1186 30.7611C46.9765 31.2593 46.7002 32.0817 46.5028 32.5799C46.3054 33.0781 46.0054 33.7898 45.8317 34.1614C45.658 34.5331 45.3185 35.2053 45.0659 35.6639C44.8132 36.1226 44.4264 36.7631 44.2132 37.0873C43.9921 37.4115 43.4947 38.1074 43.1 38.6293C42.7052 39.1512 41.9394 40.0369 41.3946 40.5984C40.8498 41.1598 40.0682 41.9031 39.6576 42.259C39.2471 42.6148 38.6234 43.1209 38.276 43.3898C37.9286 43.6507 37.2338 44.1173 36.7364 44.4336C36.239 44.7499 35.26 45.2797 34.5652 45.6277C33.8705 45.9677 32.8599 46.4105 32.3151 46.6082C31.7703 46.8059 30.9413 47.0748 30.4597 47.2013C29.9781 47.3278 29.2044 47.5097 28.7228 47.6046C28.2412 47.6916 27.3727 47.826 26.7885 47.8893C26.1726 47.9526 24.9647 48 23.9225 48C22.9356 48 21.7829 47.9605 21.3644 47.9209C20.9381 47.8735 20.1644 47.7628 19.6433 47.6758C19.1222 47.5888 18.3564 47.4306 17.9458 47.312C17.5353 47.2013 16.7536 46.9562 16.2089 46.7743C15.6641 46.5845 14.7956 46.2524 14.2745 46.0231C13.7535 45.8016 12.9718 45.4142 12.5376 45.169C12.1034 44.9239 11.4481 44.5285 11.077 44.2913C10.7059 44.054 10.0664 43.6112 9.65584 43.3028C9.24529 43.0023 8.5663 42.4646 8.15575 42.1087C7.7452 41.7529 7.07411 41.1124 6.66356 40.6774C6.25301 40.2504 5.5977 39.4834 5.19505 38.9852C4.80029 38.487 4.29499 37.8069 4.07393 37.4827C3.86076 37.1585 3.48968 36.5733 3.26072 36.1779C3.03176 35.7904 2.67648 35.1183 2.46331 34.6992C2.25014 34.2722 1.90275 33.4893 1.68958 32.9595C1.4764 32.4217 1.21586 31.6863 1.10533 31.3147C0.994797 30.943 0.813207 30.3025 0.702674 29.8913C0.600036 29.4801 0.434237 28.7288 0.347389 28.2306C0.260542 27.7325 0.150009 26.9496 0.0947425 26.4909C0.0473713 26.0323 0 24.8382 0 23.8418C0 22.545 0.0394761 21.7384 0.134219 21.0346C0.205275 20.489 0.355285 19.6033 0.465817 19.0577C0.57635 18.512 0.797416 17.6422 0.947425 17.1203C1.09743 16.5984 1.34219 15.8313 1.50009 15.4201C1.6501 15.0089 1.9817 14.2418 2.22645 13.7199C2.4791 13.198 2.90544 12.3835 3.17387 11.9012C3.45021 11.4188 3.93182 10.6755 4.23973 10.2405C4.54764 9.8056 5.04504 9.14926 5.33716 8.77759C5.63718 8.40593 6.2609 7.70214 6.71882 7.20395C7.18464 6.70577 7.95837 5.97825 8.43209 5.59077C8.9058 5.20329 9.64005 4.64185 10.0506 4.34926C10.4612 4.05667 11.1559 3.60593 11.5902 3.34498C12.0244 3.08402 12.735 2.68863 13.1692 2.47512C13.6034 2.25371 14.3298 1.91367 14.7877 1.71598C15.2457 1.51829 15.9878 1.23361 16.4457 1.08336C16.9036 0.925206 17.63 0.711697 18.0642 0.600988C18.4985 0.498188 19.2406 0.332125 19.7222 0.24514Z" fill="var(--fill-0, #545454)"/>
</g>
</svg>
