<svg preserveAspectRatio="none" width="100%" height="100%" overflow="visible" style="display: block;" viewBox="0 0 41 35" fill="none" xmlns="http://www.w3.org/2000/svg">
<path id="Vector" d="M20.7401 34.1153C17.4573 34.108 14.2105 33.7611 10.9997 33.0768C7.96449 32.4278 5.21609 31.5031 3.26176 30.4742C1.17522 29.3749 0.0486198 28.2034 0.00134414 27.0856C-0.0250981 26.4101 0.338684 25.7731 1.08468 25.1922C1.86433 24.5856 3.06545 24.0359 4.6584 23.5584C7.76256 22.6281 10.1656 21.6561 11.9997 20.5872C13.6776 19.6097 14.8812 18.5504 15.6776 17.346C17.1848 15.0672 17.0871 12.4814 16.9717 9.48786C16.8852 7.24667 16.7874 4.70741 17.3547 1.87007C17.5767 0.764302 18.0054 0.142507 18.6279 0.0215131C20.9797 -0.435218 25.5206 6.47744 28.8371 11.5247C29.2562 12.1625 29.6512 12.7643 30.0126 13.3052C30.8924 14.6241 32.8699 14.8524 34.7794 15.072C36.8579 15.314 39.0118 15.5632 39.8972 17.1954C40.3579 18.0447 40.438 19.1826 40.144 20.673C39.8171 22.3228 39.0414 24.3653 37.773 26.9149C36.8603 28.7507 35.3627 30.2691 33.3219 31.4294C31.4853 32.4726 29.2137 33.2258 26.5703 33.6633C24.7674 33.967 22.7946 34.1153 20.7401 34.1153ZM18.8691 0.223436C18.8034 0.223436 18.7377 0.229846 18.6728 0.241866C18.1472 0.346032 17.7786 0.90693 17.5775 1.91494C17.015 4.72344 17.1095 7.24988 17.1985 9.47985C17.4316 15.5375 17.5999 19.9141 4.7241 23.7739C1.73131 24.6705 0.176825 25.8132 0.228107 27.0768C0.269774 28.1097 1.35471 29.2154 3.36593 30.2739C5.30102 31.2939 8.03099 32.2082 11.0462 32.8548C16.3403 33.9871 21.9845 34.2026 26.5326 33.4454C29.1488 33.0103 31.3956 32.2667 33.2097 31.2355C35.2105 30.0984 36.6784 28.6121 37.5711 26.8196C39.9164 22.104 40.6119 18.9927 39.7009 17.3076C38.8699 15.7779 36.7786 15.5351 34.7546 15.3004C32.793 15.0728 30.7642 14.8372 29.8267 13.4326C29.4629 12.8917 29.0695 12.2899 28.6512 11.6513C25.6424 7.07199 21.144 0.223436 18.8691 0.223436Z" fill="var(--fill-0, white)"/>
</svg>
