<svg preserveAspectRatio="none" width="100%" height="100%" overflow="visible" style="display: block;" viewBox="0 0 44 33" fill="none" xmlns="http://www.w3.org/2000/svg">
<path id="Vector" d="M22.5574 32.0429C19.6143 32.0341 16.6912 31.7945 13.7866 31.3241C10.6656 30.8209 7.76016 30.0885 5.38676 29.2071C1.83708 27.8882 -0.0731752 26.4123 0.00214526 25.0445C0.0718568 23.8193 1.69365 22.8073 4.82666 22.0341C12.6776 20.0966 16.5086 18.619 18.4909 16.7648C20.4869 14.897 20.6304 12.5661 20.8459 9.03727C20.9589 7.19272 21.0863 5.10297 21.4869 2.54208C21.7209 1.04528 22.2193 0.19993 22.9677 0.0316605C25.2602 -0.488371 29.3491 5.50842 32.3339 9.88422C32.8571 10.6511 33.3507 11.3746 33.781 11.982C34.394 12.8514 35.9845 13.2528 37.6704 13.6791C39.9805 14.2624 42.5975 14.9259 43.3138 16.986C44.0206 19.0196 42.7586 22.1014 39.4557 26.4067C38.0398 28.2528 35.8315 29.6743 32.8924 30.6318C30.2946 31.4788 27.1832 31.9491 23.6448 32.0317C23.2858 32.0397 22.9236 32.0437 22.5574 32.0429ZM23.2642 0.226372C23.1808 0.225571 23.0983 0.235186 23.0166 0.252814C22.3667 0.399449 21.9252 1.1831 21.7081 2.57894C21.3098 5.12942 21.1816 7.21435 21.0687 9.05329C20.8499 12.6382 20.7057 15.0028 18.6432 16.9315C16.6312 18.8145 12.7722 20.3089 4.88035 22.2544C1.90118 22.9884 0.290607 23.9579 0.226504 25.0581C0.156793 26.2977 2.06545 27.7336 5.46529 28.9964C7.82586 29.873 10.7161 30.6014 13.8227 31.1022C17.1287 31.635 20.5254 31.881 23.6424 31.8065C27.1576 31.7256 30.2473 31.2576 32.8251 30.4179C35.7193 29.4748 37.8908 28.0797 39.2794 26.2696C42.531 22.0293 43.7818 19.0164 43.1023 17.0597C42.4276 15.1126 39.8707 14.4668 37.6159 13.8962C35.89 13.4603 34.2594 13.0477 33.5975 12.1118C33.1664 11.502 32.672 10.7777 32.1488 10.0108C29.4685 6.08455 25.4701 0.226372 23.2642 0.226372Z" fill="var(--fill-0, white)"/>
</svg>
