<svg preserveAspectRatio="none" width="100%" height="100%" overflow="visible" style="display: block;" viewBox="0 0 42 34" fill="none" xmlns="http://www.w3.org/2000/svg">
<path id="Vector" d="M21.5842 33.0552C16.7885 33.0552 11.8775 32.2956 7.95598 31.157C2.95999 29.7075 -0.0143708 27.7964 5.22143e-05 26.0464C0.0112703 24.7379 1.60662 23.6418 4.74364 22.7868C18.71 18.9799 18.7605 15.7724 18.8614 9.37816C18.8935 7.32046 18.9303 4.98713 19.4215 2.19707C19.6499 0.901394 20.113 0.170625 20.7997 0.026394C23.1251 -0.463991 27.4368 5.98312 30.585 10.6891C31.0561 11.3926 31.5001 12.0568 31.8959 12.6346C32.6411 13.7211 34.3895 14.0472 36.2452 14.3926C38.4792 14.8084 40.7877 15.2387 41.597 17.0689C41.9985 17.9799 41.9864 19.141 41.5618 20.6169C41.0898 22.2532 40.1267 24.2275 38.6178 26.653C35.6916 31.3485 28.7701 33.0552 21.5842 33.0552ZM21.069 0.224311C20.9936 0.223509 20.9191 0.231522 20.8462 0.246747C20.2581 0.370144 19.8534 1.04002 19.6427 2.23633C19.1547 5.00877 19.1178 7.33248 19.0858 9.38216C19.0361 12.5472 18.9968 15.0488 17.1892 17.1786C16.2573 18.2764 14.871 19.2564 12.9528 20.1714C10.9424 21.1306 8.27649 22.0568 4.80294 23.004C1.81816 23.8197 0.234828 24.8701 0.225212 26.048C0.211591 27.6674 3.19797 29.5424 8.01848 30.9415C13.3582 32.4911 19.7404 33.1434 25.0898 32.6858C33.3879 31.9767 36.9207 28.9487 38.4239 26.5336C41.2188 22.0432 42.1892 18.9767 41.3887 17.1594C40.6307 15.4383 38.3799 15.0192 36.2036 14.6129C34.3037 14.2588 32.5089 13.9246 31.7108 12.7612C31.3134 12.1818 30.8694 11.5176 30.3983 10.8141C27.5585 6.56966 23.315 0.224311 21.069 0.224311Z" fill="var(--fill-0, white)"/>
</svg>
