<svg preserveAspectRatio="none" width="100%" height="100%" overflow="visible" style="display: block;" viewBox="0 0 35 39" fill="none" xmlns="http://www.w3.org/2000/svg">
<path id="Vector" d="M18.2861 38.8189C14.4664 38.8189 10.4071 38.1322 6.93595 36.8814C3.00646 35.4655 0.503256 33.5697 0.0689609 31.6795C-0.451071 29.4167 2.06976 27.8181 4.27729 26.875C8.39588 25.1146 10.6483 22.4447 11.1635 18.7115C11.613 15.4519 10.6835 11.8373 9.86463 8.64904C9.03771 5.44151 8.32697 2.67067 9.05294 0.783654C9.23803 0.302083 9.52649 0.0392629 9.91111 0.00400647C9.93915 0.00400647 9.9688 5.48094e-08 9.99845 5.48094e-08C12.4111 -0.000801381 17.839 8.78766 21.8158 15.23C22.0233 15.5681 22.2276 15.8974 22.4247 16.2171C23.8462 18.5152 26.214 18.0585 28.5033 17.617C30.3734 17.2564 32.1371 16.9167 33.3302 18.0377C34.7484 19.3694 35.0682 22.601 34.3406 28.2051C33.8967 31.6282 32.2172 34.2909 29.3494 36.1202C26.9111 37.6755 23.5994 38.5954 19.7709 38.7821C19.2813 38.8053 18.7861 38.8189 18.2861 38.8189ZM10.0033 0.224359C9.97922 0.224359 9.95518 0.22516 9.93194 0.227564C9.63627 0.254808 9.41672 0.463141 9.26207 0.864584C8.56255 2.68269 9.26688 5.42228 10.0818 8.59455C11.738 15.0369 13.7989 23.0521 4.36624 27.0809C1.31495 28.3838 -0.0945007 29.9567 0.290115 31.6274C0.500852 32.5417 1.22201 33.4583 2.43354 34.3518C3.58899 35.2043 5.17313 36.0048 7.01447 36.6683C10.9111 38.0705 15.5577 38.7612 19.7621 38.5569C23.5513 38.3734 26.8278 37.4663 29.2316 35.9311C32.0409 34.1394 33.6867 31.5305 34.1218 28.1763C34.5033 25.2356 34.589 22.9872 34.3919 21.3021C34.2164 19.8181 33.8206 18.8037 33.1771 18.1995C32.069 17.1571 30.3582 17.4872 28.5473 17.8357C27.3903 18.0593 26.1932 18.2901 25.0978 18.1651C23.8454 18.0224 22.9071 17.4231 22.2348 16.3341C22.0377 16.016 21.835 15.6867 21.6259 15.347C19.7164 12.2588 17.343 8.41346 15.1595 5.36939C12.71 1.95433 10.9768 0.224359 10.0033 0.224359Z" fill="var(--fill-0, white)"/>
</svg>
