<svg preserveAspectRatio="none" width="100%" height="100%" overflow="visible" style="display: block;" viewBox="0 0 47 31" fill="none" xmlns="http://www.w3.org/2000/svg">
<path id="Vector" d="M24.8033 30.1921C23.6967 30.1921 22.5621 30.1593 21.4066 30.0928C14.0292 29.6737 6.17905 27.9029 2.32088 25.7875C0.658218 24.8772 -0.11582 23.9894 0.0139876 23.1496C0.179052 22.0703 1.85453 21.2073 4.99235 20.5839C6.88017 20.2081 8.59892 19.878 10.1158 19.5855C17.127 18.2354 20.6454 17.5599 22.5148 16.0279C24.3706 14.5054 24.635 12.0887 25.155 7.27705C25.2824 6.10397 25.4267 4.77384 25.6133 3.28426C25.8585 1.32673 26.4074 0.26583 27.2904 0.0422727C28.272 -0.205324 29.6142 0.632818 31.393 2.60718C32.8994 4.27625 34.4403 6.4349 35.8017 8.33955C36.4419 9.23698 37.0484 10.0839 37.5468 10.7298C37.9186 11.2129 39.0645 11.64 40.3914 12.1328C41.6799 12.6128 43.1414 13.1577 44.3545 13.9125C45.7784 14.7955 46.5757 15.7995 46.792 16.9774C46.9924 18.0687 46.6775 19.3243 45.8545 20.7089C44.9355 22.2546 43.3481 24.0238 41.1358 25.9646C39.2055 27.6593 36.3433 28.8652 32.6278 29.5495C30.3161 29.975 27.655 30.1921 24.8033 30.1921ZM27.6382 0.225766C27.5396 0.224965 27.4427 0.236183 27.3473 0.260221C26.5757 0.455734 26.0669 1.48298 25.8377 3.31231C25.6518 4.80029 25.5068 6.12881 25.3802 7.30189C24.8497 12.1745 24.5845 14.62 22.6574 16.1993C20.744 17.7682 17.2055 18.4485 10.1574 19.8043C8.64139 20.096 6.92344 20.4285 5.03642 20.8019C1.25517 21.5543 0.339308 22.5118 0.235141 23.1817C0.123763 23.9093 0.882577 24.7402 2.42905 25.5887C6.26158 27.6897 14.0709 29.4485 21.4194 29.8668C25.5332 30.1008 29.3954 29.9141 32.5869 29.3259C36.2624 28.6504 39.0877 27.4613 40.9875 25.7931C43.1815 23.8676 44.7544 22.1176 45.6614 20.5912C46.4555 19.2546 46.7616 18.0519 46.5709 17.0158C46.1085 14.4998 42.8946 13.3027 40.3129 12.3395C38.8978 11.8171 37.78 11.4004 37.369 10.8684C36.8666 10.217 36.26 9.36839 35.6182 8.47016C34.2608 6.56952 32.7223 4.41727 31.2263 2.75461C29.7095 1.07432 28.5052 0.225766 27.6382 0.225766Z" fill="var(--fill-0, white)"/>
</svg>
