<svg preserveAspectRatio="none" width="100%" height="100%" overflow="visible" style="display: block;" viewBox="0 0 67 48" fill="none" xmlns="http://www.w3.org/2000/svg">
<g id="Toyota_Logo logo" clip-path="url(#clip0_2006_204)">
<path id="Vector" d="M9.52391 36.5833H0.000143433V38.6888H3.51528V47.6667H6.00903V38.6888H9.52417L9.52391 36.5833ZM18.8367 43.9041C18.6452 44.3881 18.3332 44.8152 17.9302 45.1447C17.5273 45.4742 17.0468 45.6953 16.5344 45.787C16.3433 45.8208 16.1497 45.8379 15.9557 45.8383C15.7593 45.8383 15.5658 45.8198 15.379 45.787C14.8666 45.6956 14.3861 45.4746 13.9833 45.145C13.5805 44.8154 13.2687 44.3882 13.0776 43.9041C12.8554 43.3373 12.7416 42.7339 12.7419 42.1251C12.7419 41.4973 12.8614 40.896 13.0776 40.3451C13.2689 39.8611 13.5808 39.4341 13.9836 39.1046C14.3864 38.7751 14.8667 38.5541 15.379 38.4625C15.7608 38.3921 16.1523 38.3921 16.5341 38.4625C17.0465 38.5539 17.527 38.7749 17.9299 39.1043C18.3329 39.4337 18.6449 39.8606 18.8365 40.3446C19.283 41.4891 19.2832 42.7596 18.8367 43.9041ZM15.9552 36.2503C12.7123 36.2503 10.0806 38.8804 10.0806 42.1251C10.0806 45.3677 12.7123 47.9984 15.9555 47.9984C19.2007 47.9984 21.8303 45.3677 21.8303 42.1254C21.8303 38.8804 19.2005 36.2503 15.9552 36.2503ZM21.8697 36.5833H24.807L27.55 41.3485L30.2931 36.5833H33.2293L28.7967 43.5663V47.6667H26.3034V43.5663L21.8697 36.5833ZM39.1507 45.8393C39.3466 45.8393 39.5411 45.8195 39.7275 45.787C40.2399 45.6958 40.7204 45.475 41.1233 45.1456C41.5262 44.8161 41.838 44.389 42.0291 43.9049C42.4789 42.7613 42.4789 41.4898 42.0291 40.3461C41.838 39.8619 41.5262 39.4347 41.1233 39.1051C40.7205 38.7754 40.2399 38.5544 39.7275 38.463C39.3449 38.3946 38.9533 38.3946 38.5707 38.463C38.0585 38.5544 37.5782 38.7754 37.1756 39.1049C36.7729 39.4345 36.4613 39.8616 36.2705 40.3456C36.0478 40.9123 35.9335 41.5157 35.9337 42.1246C35.9337 42.7529 36.0532 43.3527 36.2705 43.9046C36.4612 44.3887 36.7728 44.8158 37.1755 45.1453C37.5781 45.4748 38.0585 45.6956 38.5707 45.7867C38.7621 45.8213 38.9562 45.8389 39.1507 45.8393ZM33.2748 42.1246C33.2748 38.8801 35.9039 36.2489 39.1504 36.2489C42.3933 36.2489 45.025 38.8791 45.025 42.1246C45.0248 45.3669 42.3933 47.9997 39.1504 47.9997C35.9039 47.9997 33.2748 45.3669 33.2748 42.1246ZM62.0337 43.2797L60.4017 38.9008L58.7676 43.2797H62.0337ZM62.7572 45.2189H58.0396L57.1322 47.6595H54.3577L58.8477 36.5751H61.9505L66.4421 47.6595H63.671L62.7572 45.2189ZM55.0904 36.5831H45.5669V38.6888H49.0837L49.0826 47.6664H51.5774L51.5763 38.6888H55.0904V36.5831ZM44.1379 1.55509C41.0915 0.570966 37.3149 0 33.2211 0C29.1273 0 25.3508 0.57123 22.3043 1.55509C14.2119 4.15721 8.65821 9.55231 8.65821 15.7721C8.65821 24.5312 19.6387 31.6714 33.2211 31.6714C46.772 31.6714 57.784 24.5629 57.784 15.7721C57.784 9.55231 52.2303 4.15721 44.1379 1.55509ZM33.2211 24.8484C31.1902 24.8484 29.54 20.8815 29.4448 15.8676C30.6507 15.9944 31.92 16.0262 33.2211 16.0262C34.5222 16.0262 35.7918 15.9627 36.9977 15.8676C36.9025 20.8815 35.2523 24.8484 33.2211 24.8484ZM29.6986 11.9641C30.2378 8.44157 31.6026 5.96633 33.2211 5.96633C34.8079 5.96633 36.1724 8.44157 36.7437 11.9641C35.6329 12.0593 34.427 12.1227 33.2211 12.1227C32.0152 12.1227 30.841 12.0593 29.6986 11.9641ZM38.9017 11.6786C38.0767 6.18837 35.8552 2.22148 33.2211 2.22148C30.5873 2.22148 28.3658 6.15665 27.5405 11.6784C22.5583 10.8851 19.0672 9.13968 19.0672 7.07681C19.0672 4.28409 25.4145 2.03116 33.2211 2.03116C41.028 2.03116 47.375 4.28409 47.375 7.07681C47.375 9.13968 43.8842 10.9171 38.9017 11.6786ZM12.2445 15.2006C12.2445 12.5034 13.2915 9.99613 15.1006 7.80664C15.0689 7.96524 15.0689 8.12384 15.0689 8.25072C15.0689 11.6464 20.1463 14.5025 27.2231 15.5816V16.3431C27.2231 22.6266 28.9687 27.958 31.3805 29.7989C20.654 29.1642 12.2442 22.8809 12.2442 15.2009L12.2445 15.2006ZM35.0619 29.8306C37.4735 27.99 39.2192 22.6584 39.2192 16.3748V15.6135C46.296 14.566 51.3733 11.6781 51.3733 8.28244C51.3733 8.12384 51.3733 7.96524 51.3416 7.83836C53.1507 9.99613 54.198 12.5351 54.198 15.2326C54.198 22.8807 45.7882 29.1642 35.0617 29.8306H35.0619Z" fill="var(--fill-0, #545454)"/>
</g>
<defs>
<clipPath id="clip0_2006_204">
<rect width="66.4421" height="48" fill="white"/>
</clipPath>
</defs>
</svg>
