<svg preserveAspectRatio="none" width="100%" height="100%" overflow="visible" style="display: block;" viewBox="0 0 24 25" fill="none" xmlns="http://www.w3.org/2000/svg">
<path id="Vector" d="M22 1.00079H16C15.4696 1.00079 14.9609 1.2115 14.5858 1.58657C14.2107 1.96165 14 2.47035 14 3.00079V23.0008C14 23.5312 14.2107 24.0399 14.5858 24.415C14.9609 24.7901 15.4696 25.0008 16 25.0008H22C22.5304 25.0008 23.0391 24.7901 23.4142 24.415C23.7893 24.0399 24 23.5312 24 23.0008V3.00079C24 2.47035 23.7893 1.96165 23.4142 1.58657C23.0391 1.2115 22.5304 1.00079 22 1.00079ZM22 23.0008H16V19.0008H19C19.2652 19.0008 19.5196 18.8954 19.7071 18.7079C19.8946 18.5204 20 18.266 20 18.0008C20 17.7356 19.8946 17.4812 19.7071 17.2937C19.5196 17.1061 19.2652 17.0008 19 17.0008H16V14.0008H19C19.2652 14.0008 19.5196 13.8954 19.7071 13.7079C19.8946 13.5204 20 13.266 20 13.0008C20 12.7356 19.8946 12.4812 19.7071 12.2937C19.5196 12.1061 19.2652 12.0008 19 12.0008H16V9.00079H19C19.2652 9.00079 19.5196 8.89543 19.7071 8.70789C19.8946 8.52036 20 8.266 20 8.00079C20 7.73557 19.8946 7.48122 19.7071 7.29368C19.5196 7.10614 19.2652 7.00079 19 7.00079H16V3.00079H22V23.0008ZM5.7075 0.293287C5.61463 0.20031 5.50434 0.126551 5.38294 0.0762267C5.26154 0.0259024 5.13142 0 5 0C4.86858 0 4.73846 0.0259024 4.61706 0.0762267C4.49566 0.126551 4.38537 0.20031 4.2925 0.293287L0.2925 4.29329C0.199666 4.38622 0.126052 4.49654 0.0758637 4.61794C0.0256756 4.73933 -0.000102986 4.86943 3.09201e-07 5.00079V23.0008C3.09201e-07 23.5312 0.210714 24.0399 0.585787 24.415C0.960859 24.7901 1.46957 25.0008 2 25.0008H8C8.53043 25.0008 9.03914 24.7901 9.41421 24.415C9.78929 24.0399 10 23.5312 10 23.0008V5.00079C10.0001 4.86943 9.97432 4.73933 9.92414 4.61794C9.87395 4.49654 9.80033 4.38622 9.7075 4.29329L5.7075 0.293287ZM2 19.0008V7.00079H4V19.0008H2ZM6 7.00079H8V19.0008H6V7.00079ZM5 2.41454L7.58625 5.00079H2.41375L5 2.41454ZM2 23.0008V21.0008H8V23.0008H2Z" fill="var(--fill-0, #A2A3E9)"/>
</svg>
